# Blender 5.1.2
# www.blender.org
mtllib blackpink.mtl
o Cube
v -2.245297 -0.531942 0.184689
v -2.245297 0.531942 0.184689
v -2.245297 -0.531942 -0.184689
v -2.245297 0.531942 -0.184689
v 2.245297 -0.531942 0.184689
v 2.245297 0.531942 0.184689
v 2.245297 -0.531942 -0.184689
v 2.245297 0.531942 -0.184689
v -2.102839 -0.410851 -0.184689
v -2.102839 0.410851 -0.184689
v 2.102839 -0.410851 -0.184689
v 2.102839 0.410851 -0.184689
v 2.102839 -0.410851 0.184689
v 2.102839 0.410851 0.184689
v -2.102839 -0.410851 0.184689
v -2.102839 0.410851 0.184689
v 1.575066 -0.209734 0.055841
v 1.575066 0.231572 0.055841
v 1.575066 -0.209734 -0.055841
v 1.575066 0.231572 -0.055841
v 1.686747 -0.209734 0.055841
v 1.686747 0.231572 0.055841
v 1.686747 -0.209734 -0.055841
v 1.686747 0.231572 -0.055841
v 1.688263 0.079916 0.055841
v 1.688263 0.077905 -0.055841
v 1.686747 0.008640 0.055841
v 1.686747 0.007993 -0.055841
v 1.686747 -0.057095 0.055841
v 1.686747 -0.056891 -0.055841
v 1.812574 0.232324 0.055841
v 1.812574 0.230313 -0.055841
v 1.776936 0.024564 0.055841
v 1.776936 0.023916 -0.055841
v 1.943240 0.228571 0.056156
v 1.943240 0.226559 -0.055525
v 1.790832 0.043557 0.056156
v 1.790832 0.042910 -0.055525
v 1.701181 -0.073115 0.056315
v 1.701181 -0.073763 -0.055367
v 1.815634 -0.038994 0.056315
v 1.815634 -0.039641 -0.055367
v 1.663303 0.004501 0.055865
v 1.663303 0.003854 -0.055817
v 1.677737 -0.077255 0.056339
v 1.677737 -0.077902 -0.055343
v 1.807897 -0.204869 0.057179
v 1.807897 -0.205516 -0.054502
v 1.937515 -0.207144 0.057179
v 1.937515 -0.207791 -0.054502
v -1.837466 0.141127 -0.073358
v -1.837466 0.224854 -0.073358
v -1.837466 0.141127 0.073358
v -1.837466 0.224854 0.073358
v -1.952363 0.141127 -0.073358
v -1.952363 0.224854 -0.073358
v -1.952363 0.141127 0.073358
v -1.952363 0.224854 0.073358
v -1.837466 0.053209 0.073358
v -1.837466 0.053209 -0.073358
v -1.952363 0.053209 0.073358
v -1.952363 0.053209 -0.073358
v -1.837466 -0.030456 0.073358
v -1.837466 -0.030456 -0.073358
v -1.952363 -0.030456 0.073358
v -1.952363 -0.030456 -0.073358
v -1.837466 -0.124139 0.073358
v -1.837466 -0.124139 -0.073358
v -1.952363 -0.124139 0.073358
v -1.952363 -0.124139 -0.073358
v -1.837466 -0.226382 0.073358
v -1.837466 -0.226382 -0.073358
v -1.952363 -0.226382 0.073358
v -1.952363 -0.226382 -0.073358
v -1.751062 -0.124139 0.073358
v -1.751062 -0.124139 -0.073358
v -1.751062 -0.226382 0.073358
v -1.751062 -0.226382 -0.073358
v -1.596356 -0.124139 0.073358
v -1.596356 -0.124139 -0.073358
v -1.952363 -0.124139 0.073358
v -1.952363 -0.030456 0.073358
v -1.712270 -0.226382 0.073358
v -1.596356 -0.129424 0.073358
v -1.699614 -0.225553 0.073358
v -1.687175 -0.223078 0.073358
v -1.675166 -0.219002 0.073358
v -1.663791 -0.213392 0.073358
v -1.653246 -0.209379 0.073358
v -1.643710 -0.201017 0.073358
v -1.626249 -0.188448 0.073358
v -1.619203 -0.177903 0.073358
v -1.613593 -0.166528 0.073358
v -1.609517 -0.154519 0.073358
v -1.607043 -0.142080 0.073358
v -1.596356 -0.129424 -0.073358
v -1.712270 -0.226382 -0.073358
v -1.607043 -0.142080 -0.073358
v -1.609517 -0.154519 -0.073358
v -1.613593 -0.166528 -0.073358
v -1.619203 -0.177903 -0.073358
v -1.626249 -0.188448 -0.073358
v -1.643710 -0.201017 -0.073358
v -1.653246 -0.209379 -0.073358
v -1.663791 -0.213392 -0.073358
v -1.675166 -0.219002 -0.073358
v -1.687175 -0.223078 -0.073358
v -1.699614 -0.225553 -0.073358
v -1.595535 -0.078576 -0.076642
v -1.595535 -0.076171 0.070073
v -1.741884 -0.013046 -0.076642
v -1.741884 -0.013046 0.070073
v -1.737432 0.141127 0.073358
v -1.737432 0.141127 -0.073358
v -1.737432 0.224854 -0.073358
v -1.737432 0.224854 0.073358
v -1.600745 0.141127 0.073358
v -1.600745 0.141127 -0.073358
v -1.737432 0.020051 -0.073358
v -1.737432 0.020051 0.073358
v -1.701589 0.224854 -0.073358
v -1.600745 0.141127 -0.073358
v -1.679149 0.222755 -0.073358
v -1.657835 0.216563 -0.073358
v -1.638714 0.206588 -0.073358
v -1.622746 0.193330 -0.073358
v -1.610732 0.177455 -0.073358
v -1.603273 0.159758 -0.073358
v -1.600745 0.141127 0.073358
v -1.701589 0.224854 0.073358
v -1.603273 0.159758 0.073358
v -1.610732 0.177455 0.073358
v -1.622746 0.193330 0.073358
v -1.638714 0.206588 0.073358
v -1.657835 0.216563 0.073358
v -1.679149 0.222755 0.073358
v -1.662543 0.020051 0.073358
v -1.600745 0.081849 0.073358
v -1.643446 0.023076 0.073358
v -1.626219 0.031853 0.073358
v -1.612547 0.045525 0.073358
v -1.603770 0.062752 0.073358
v -1.600745 0.081849 -0.073358
v -1.662543 0.020051 -0.073358
v -1.603770 0.062752 -0.073358
v -1.612547 0.045525 -0.073358
v -1.626219 0.031853 -0.073358
v -1.643446 0.023076 -0.073358
v -1.741884 -0.127504 -0.076642
v -1.598100 -0.127504 -0.076642
v -1.741884 -0.127504 0.070073
v -1.598100 -0.127504 0.070073
v -1.627963 -0.002163 -0.075562
v -1.604767 -0.033182 -0.076642
v -1.631158 -0.013046 -0.076642
v -1.622728 -0.006511 -0.075896
v -1.618005 -0.012405 -0.076197
v -1.614257 -0.019268 -0.076436
v -1.610123 -0.026427 -0.076590
v -1.604767 -0.033182 0.070073
v -1.627963 -0.002163 0.071153
v -1.631158 -0.013046 0.070073
v -1.610123 -0.026427 0.070126
v -1.614257 -0.019268 0.070279
v -1.618005 -0.012405 0.070518
v -1.622728 -0.006511 0.070819
v -1.598740 -0.050332 0.070073
v -1.597490 -0.055018 -0.076642
v -1.716679 0.053209 0.073358
v -1.716679 0.053209 -0.073358
v -1.716679 -0.030456 0.073358
v -1.716679 -0.030456 -0.073358
v -1.495862 0.111280 0.075000
v -1.495862 0.231425 0.075000
v -1.495862 0.111280 -0.075000
v -1.495862 0.231425 -0.075000
v -1.375717 0.111280 0.075000
v -1.375717 0.231425 0.075000
v -1.375717 0.111280 -0.075000
v -1.375717 0.231425 -0.075000
v -1.495862 -0.109939 -0.075000
v -1.495862 -0.109939 0.075000
v -1.375717 -0.109939 -0.075000
v -1.375717 -0.109939 0.075000
v -1.495862 -0.221648 -0.075000
v -1.495862 -0.221648 0.075000
v -1.375717 -0.221648 -0.075000
v -1.375717 -0.221648 0.075000
v -1.151192 -0.109939 0.075000
v -1.151192 -0.109939 -0.075000
v -1.151192 -0.221648 0.075000
v -1.151192 -0.221648 -0.075000
v -1.069715 -0.218374 0.063356
v -1.035648 -0.110289 0.063356
v -1.069715 -0.218374 -0.063356
v -1.035648 -0.110289 -0.063356
v -0.961630 -0.218374 0.063356
v -0.926253 -0.110289 0.063356
v -0.961630 -0.218374 -0.063356
v -0.926253 -0.110289 -0.063356
v -0.919036 0.217275 0.063356
v -0.919036 0.217275 -0.063356
v -0.829294 0.217275 -0.063356
v -0.829294 0.217275 0.063356
v -0.783861 -0.215211 0.049298
v -0.811377 -0.099251 0.049298
v -0.783861 -0.215211 -0.086644
v -0.811377 -0.099251 -0.086644
v -0.667902 -0.215211 0.049298
v -0.713761 -0.099251 0.049298
v -0.667902 -0.215211 -0.086644
v -0.713761 -0.099251 -0.086644
v -0.919657 0.213900 0.049298
v -0.919657 0.213900 -0.086644
v -0.827829 0.213900 -0.086644
v -0.827829 0.213900 0.049298
v -0.500457 0.107810 0.071135
v -0.578835 0.185768 0.070452
v -0.500457 0.107810 -0.071135
v -0.578835 0.185768 -0.071819
v -0.426793 0.133590 0.071135
v -0.463189 0.236826 0.071135
v -0.426793 0.133590 -0.071135
v -0.463189 0.236826 -0.071135
v -0.426793 0.133590 -0.071135
v -0.463189 0.236826 -0.071135
v -0.361157 0.229503 -0.071135
v -0.282436 0.184484 -0.071135
v -0.282436 0.184484 0.071135
v -0.361157 0.229503 0.071135
v -0.347380 -0.072130 0.071135
v -0.347380 -0.072130 -0.071135
v -0.218638 -0.078105 0.071135
v -0.218638 -0.078105 -0.071135
v -0.248241 0.135452 -0.071135
v -0.249698 0.139586 0.071135
v -0.217681 0.076429 -0.071135
v -0.221104 0.088037 0.071135
v -0.210282 0.030488 0.071135
v -0.205570 0.009160 -0.071135
v -0.204726 -0.036505 -0.071135
v -0.208187 -0.019877 0.071135
v -0.375596 0.107255 0.071135
v -0.373157 0.100336 -0.071135
v -0.348375 0.075066 0.071135
v -0.346079 0.067388 -0.071135
v -0.327986 0.042280 0.071135
v -0.326246 0.036137 -0.071135
v -0.329912 -0.012755 0.071135
v -0.329264 -0.023078 -0.071135
v -0.332095 -0.039590 0.071135
v -0.332560 -0.050758 -0.071135
v -0.379391 -0.102937 0.077666
v -0.379391 -0.102937 -0.064605
v -0.263660 -0.163027 0.069937
v -0.263660 -0.163027 -0.072334
v -0.432323 -0.116865 0.077666
v -0.432323 -0.116865 -0.064605
v -0.333653 -0.218026 0.069937
v -0.333653 -0.218026 -0.072334
v -0.478049 -0.107645 0.077666
v -0.478049 -0.107645 -0.064605
v -0.409708 -0.235978 0.069937
v -0.409708 -0.235978 -0.072334
v -0.518378 -0.078507 0.077666
v -0.518378 -0.078507 -0.064605
v -0.484790 -0.230851 0.069937
v -0.484790 -0.230851 -0.072334
v -0.529392 -0.072985 0.077666
v -0.529392 -0.072985 -0.064605
v -0.552673 -0.196262 0.069937
v -0.552673 -0.196262 -0.072334
v -0.530659 -0.069328 0.077666
v -0.530659 -0.069328 -0.064605
v -0.603859 -0.141423 0.069937
v -0.603859 -0.141423 -0.072334
v -0.131180 -0.209734 0.074112
v -0.131180 0.231572 0.074112
v -0.131180 -0.209734 -0.074112
v -0.131180 0.231572 -0.074112
v -0.019499 -0.209734 0.074112
v -0.019499 0.231572 0.074112
v -0.019499 -0.209734 -0.074112
v -0.019499 0.231572 -0.074112
v -0.017983 0.079916 0.074112
v -0.017983 0.077905 -0.074112
v -0.019499 0.008640 0.074112
v -0.019499 0.007993 -0.074112
v -0.019499 -0.057095 0.074112
v -0.019499 -0.056891 -0.074112
v 0.106328 0.232325 0.074112
v 0.106328 0.230313 -0.074112
v 0.070690 0.024564 0.074112
v 0.070690 0.023916 -0.074112
v 0.236994 0.228571 0.074530
v 0.236994 0.226559 -0.073693
v 0.084586 0.043557 0.074530
v 0.084586 0.042910 -0.073693
v -0.005065 -0.073115 0.074741
v -0.005065 -0.073763 -0.073483
v 0.109388 -0.038994 0.074741
v 0.109388 -0.039641 -0.073483
v -0.042944 0.004501 0.074143
v -0.042944 0.003854 -0.074080
v -0.028509 -0.077254 0.074772
v -0.028509 -0.077902 -0.073451
v 0.101651 -0.204869 0.075888
v 0.101651 -0.205516 -0.072335
v 0.231269 -0.207143 0.075888
v 0.231269 -0.207791 -0.072335
v 0.414855 0.114582 0.064860
v 0.414855 0.231138 0.064860
v 0.414855 0.114582 -0.064860
v 0.414855 0.231138 -0.064860
v 0.531411 0.114582 0.064860
v 0.531411 0.231138 0.064860
v 0.531411 0.114582 -0.064860
v 0.531411 0.231138 -0.064860
v 0.657883 0.114582 -0.064860
v 0.770715 0.114582 -0.064860
v 0.770715 0.114582 0.064860
v 0.648602 0.114582 0.064860
v 0.634313 0.231138 -0.064860
v 0.770715 0.114582 -0.064860
v 0.669617 0.227167 -0.064860
v 0.702514 0.215523 -0.064860
v 0.730764 0.197000 -0.064860
v 0.752441 0.172860 -0.064860
v 0.766068 0.144749 -0.064860
v 0.770715 0.114582 0.064860
v 0.634313 0.231138 0.064860
v 0.766068 0.144749 0.064860
v 0.752441 0.172860 0.064860
v 0.730764 0.197000 0.064860
v 0.702514 0.215523 0.064860
v 0.669617 0.227167 0.064860
v 0.648602 0.033323 0.064860
v 0.657883 0.032181 -0.064860
v 0.657883 -0.076497 -0.064860
v 0.648602 -0.076497 0.064860
v 0.648602 -0.076497 0.064860
v 0.770715 0.090748 0.064860
v 0.680207 -0.070798 0.064860
v 0.709659 -0.054090 0.064860
v 0.734949 -0.027512 0.064860
v 0.754355 0.007126 0.064860
v 0.766554 0.047462 0.064860
v 0.770715 0.090748 -0.064860
v 0.657883 -0.076497 -0.064860
v 0.766871 0.047462 -0.064860
v 0.755599 0.007126 -0.064860
v 0.737667 -0.027512 -0.064860
v 0.714299 -0.054090 -0.064860
v 0.687086 -0.070798 -0.064860
v 0.467248 -0.076497 0.048789
v 0.467248 0.033323 0.048789
v 0.476529 -0.076497 -0.080932
v 0.476529 0.032181 -0.080932
v 0.419764 -0.076497 0.044581
v 0.419764 0.033323 0.044581
v 0.429045 -0.076497 -0.085140
v 0.429045 0.032181 -0.085140
v 0.421493 -0.076497 0.044734
v 0.421493 0.033323 0.044734
v 0.430774 -0.076497 -0.084987
v 0.430774 0.032181 -0.084987
v 0.414855 -0.096231 -0.064860
v 0.414855 -0.096231 0.064860
v 0.531411 -0.096231 -0.064860
v 0.531411 -0.096231 0.064860
v 0.414855 -0.209059 -0.064860
v 0.414855 -0.209059 0.064860
v 0.531411 -0.209059 -0.064860
v 0.531411 -0.209059 0.064860
v 0.855829 0.118153 0.075000
v 0.855829 0.225134 0.075000
v 0.855829 0.118153 -0.075000
v 0.855829 0.225134 -0.075000
v 0.962810 0.118153 0.075000
v 0.962810 0.225134 0.075000
v 0.962810 0.118153 -0.075000
v 0.962810 0.225134 -0.075000
v 0.855829 -0.200239 -0.075000
v 0.855829 -0.200239 0.075000
v 0.962810 -0.200239 -0.075000
v 0.962810 -0.200239 0.075000
v 1.073845 0.109859 0.059290
v 1.073845 0.228438 0.059290
v 1.073845 0.109859 -0.059290
v 1.073845 0.228438 -0.059290
v 1.192424 0.109859 0.059290
v 1.192424 0.228438 0.059290
v 1.192424 0.109859 -0.059290
v 1.192424 0.228438 -0.059290
v 1.073845 -0.206176 -0.059290
v 1.073845 -0.206176 0.059290
v 1.192424 -0.206176 -0.059290
v 1.192424 -0.206176 0.059290
v 1.073845 -0.206176 -0.059290
v 1.073845 -0.206176 0.059290
v 1.192424 -0.206176 -0.059290
v 1.192424 -0.206176 0.059290
v 1.192424 0.109859 0.059290
v 1.192424 0.109859 -0.059290
v 1.192424 -0.206176 0.059290
v 1.192424 -0.206176 -0.059290
v 1.192424 0.008704 -0.059290
v 1.192424 0.010078 0.059290
v 1.463327 0.232438 0.062038
v 1.463327 0.232438 -0.056541
v 1.344354 0.230213 0.058381
v 1.344354 0.228839 -0.060198
v 1.339920 -0.209481 0.047574
v 1.340550 -0.208667 -0.071026
v 1.453657 -0.208975 -0.056646
v 1.453657 -0.208975 0.061933
v 1.340206 0.019021 0.048009
v 1.338135 0.015667 -0.070591
v -2.148620 -0.432184 -0.021600
v -2.148620 0.432184 -0.021600
v -2.148620 -0.432184 -0.116255
v -2.148620 0.432184 -0.116255
v 2.148620 -0.432184 -0.021600
v 2.148620 0.432184 -0.021600
v 2.148620 -0.432184 -0.116255
v 2.148620 0.432184 -0.116255
vn -1.0000 -0.0000 -0.0000
vn -0.0000 -0.0000 -1.0000
vn 1.0000 -0.0000 -0.0000
vn -0.0000 -0.0000 1.0000
vn -0.0000 -1.0000 -0.0000
vn -0.0000 1.0000 -0.0000
vn 0.8070 -0.5905 0.0034
vn 1.0000 0.0099 -0.0001
vn -0.1739 0.9848 -0.0057
vn -0.7749 0.6320 -0.0114
vn 0.7707 -0.6372 0.0076
vn -0.0046 0.0022 1.0000
vn 0.0046 -0.0022 -1.0000
vn 0.0288 0.9994 -0.0180
vn 0.0007 -0.0052 -1.0000
vn -0.0015 0.0060 1.0000
vn 0.8541 0.5200 -0.0030
vn 0.0015 -0.0060 -1.0000
vn -0.9848 -0.1739 0.0010
vn 0.1739 -0.9848 0.0057
vn -0.0000 0.0058 1.0000
vn -0.0000 -0.0058 -1.0000
vn -0.0175 -0.9998 0.0058
vn -0.7771 -0.6294 0.0036
vn -0.0007 0.0052 1.0000
vn 0.8097 0.5869 -0.0034
vn 0.0654 -0.9979 -0.0000
vn 0.1951 -0.9808 -0.0000
vn 0.3214 -0.9469 -0.0000
vn 0.4423 -0.8969 -0.0000
vn 0.3557 -0.9346 -0.0000
vn 0.6593 -0.7518 -0.0000
vn 0.5842 -0.8116 -0.0000
vn 0.8315 -0.5556 -0.0000
vn 0.8969 -0.4423 -0.0000
vn 0.9469 -0.3214 -0.0000
vn 0.9808 -0.1951 -0.0000
vn 0.7640 -0.6452 -0.0000
vn -0.9911 0.1333 -0.0000
vn 0.0931 0.9957 -0.0000
vn 0.2790 0.9603 -0.0000
vn 0.4625 0.8866 -0.0000
vn 0.6388 0.7694 -0.0000
vn 0.7974 0.6035 -0.0000
vn 0.9215 0.3884 -0.0000
vn 0.9909 0.1345 -0.0000
vn 0.1564 -0.9877 -0.0000
vn 0.4540 -0.8910 -0.0000
vn 0.7071 -0.7071 -0.0000
vn 0.8910 -0.4540 -0.0000
vn 0.9877 -0.1564 -0.0000
vn 0.9987 -0.0511 0.0004
vn 0.0150 0.0944 -0.9954
vn 0.0301 0.0750 -0.9967
vn 0.0313 0.0518 -0.9982
vn 0.0255 0.0361 -0.9990
vn 0.0151 0.0198 -0.9997
vn -0.0151 -0.0198 0.9997
vn -0.0255 -0.0361 0.9990
vn -0.0313 -0.0518 0.9982
vn -0.0301 -0.0750 0.9967
vn -0.0150 -0.0944 0.9954
vn 0.7836 0.6213 -0.0000
vn 0.8660 0.5001 -0.0000
vn 0.8776 0.4793 -0.0000
vn 0.7804 0.6253 -0.0000
vn 0.6389 0.7693 -0.0000
vn 0.5405 0.8414 -0.0000
vn -0.0000 0.0988 -0.9951
vn 0.9464 0.3230 -0.0011
vn -0.0000 -0.0988 0.9951
vn 0.9946 0.1039 0.0017
vn -0.9537 0.3006 -0.0000
vn 0.9504 -0.3111 -0.0000
vn 0.9589 -0.2838 -0.0000
vn -0.9421 0.3354 -0.0000
vn -0.9730 -0.2309 -0.0000
vn 0.9299 0.3678 -0.0000
vn -0.9451 -0.3268 -0.0000
vn 0.9396 0.3423 -0.0000
vn -0.7052 -0.7090 -0.0000
vn 0.0041 -0.0012 -1.0000
vn -0.0041 0.0012 1.0000
vn 0.3303 -0.9439 -0.0000
vn -0.4039 0.9148 -0.0000
vn 0.4964 0.8681 -0.0000
vn -0.4941 -0.8692 0.0169
vn 0.0716 0.9974 -0.0000
vn -0.0373 -0.0212 -0.9991
vn 0.8144 0.5803 -0.0043
vn 0.8817 0.4717 -0.0110
vn 0.9835 0.1807 0.0072
vn 0.9992 0.0306 0.0246
vn 0.9712 -0.2370 0.0257
vn -0.7680 -0.6402 0.0201
vn -0.8467 -0.5318 0.0138
vn -0.9990 0.0432 -0.0109
vn -0.9950 0.1000 -0.0082
vn -0.8730 0.4875 -0.0177
vn -0.0307 0.0548 -0.9980
vn 0.8835 -0.4684 -0.0000
vn 0.0373 0.0212 0.9991
vn -0.6934 0.7205 -0.0000
vn 0.0046 -0.0639 0.9979
vn 0.6179 -0.7863 -0.0000
vn 0.0307 -0.0548 0.9980
vn -0.2545 0.9671 -0.0000
vn 0.0183 0.0616 -0.9979
vn 0.1976 0.9803 -0.0000
vn -0.0046 0.0639 -0.9979
vn 0.2297 -0.9733 -0.0000
vn -0.4540 -0.8910 -0.0000
vn -0.0681 -0.9977 -0.0000
vn -0.0183 -0.0616 0.9979
vn 0.5856 0.8106 -0.0000
vn -0.0567 -0.0509 0.9971
vn -0.0290 -0.0571 0.9979
vn 0.4482 0.8939 -0.0000
vn 0.0290 0.0571 -0.9979
vn -0.7017 0.7125 -0.0000
vn 0.9448 0.3275 -0.0000
vn 0.0567 0.0509 -0.9971
vn -0.7310 -0.6823 -0.0000
vn 0.8070 -0.5905 0.0026
vn -0.1739 0.9848 -0.0043
vn -0.7749 0.6320 -0.0086
vn 0.7707 -0.6372 0.0057
vn -0.0061 0.0029 1.0000
vn 0.0061 -0.0029 -1.0000
vn 0.0288 0.9995 -0.0136
vn 0.0009 -0.0070 -1.0000
vn -0.0019 0.0079 1.0000
vn 0.8541 0.5200 -0.0023
vn 0.0019 -0.0079 -1.0000
vn -0.9848 -0.1739 0.0008
vn 0.1739 -0.9848 0.0043
vn -0.0000 0.0077 1.0000
vn -0.0000 -0.0077 -1.0000
vn -0.0175 -0.9998 0.0044
vn -0.7771 -0.6294 0.0027
vn -0.0009 0.0070 1.0000
vn 0.8097 0.5869 -0.0026
vn -0.9975 -0.0000 -0.0714
vn 0.1118 0.9937 -0.0000
vn 0.3337 0.9427 -0.0000
vn 0.5483 0.8363 -0.0000
vn 0.7440 0.6681 -0.0000
vn 0.8999 0.4362 -0.0000
vn 0.9883 0.1523 -0.0000
vn 0.0883 -0.0000 -0.9961
vn 0.1842 -0.9828 0.0115
vn 0.5078 -0.8612 0.0225
vn 0.7375 -0.6751 0.0209
vn 0.8802 -0.4744 0.0134
vn 0.9602 -0.2794 0.0058
vn 0.9958 -0.0921 0.0012
vn 0.0008 1.0000 -0.0087
vn -0.0883 -0.0000 0.9961
vn -0.0008 -1.0000 0.0087
vn -0.0243 0.9997 -0.0058
vn 0.8360 -0.5488 0.0005
vn -0.8230 0.5680 -0.0066
vn -0.0475 0.0319 -0.9984
vn 0.0471 -0.0317 0.9984
vn 0.9998 -0.0219 -0.0000
vn -0.1199 0.0010 0.9928
vn 0.0013 -1.0000 -0.0034
vn -1.0000 -0.0047 0.0061
vn 0.1189 -0.0005 -0.9929
vt 0.302634 0.579983
vt 0.302634 0.476211
vt 0.338663 0.476211
vt 0.338663 0.579983
vt 0.019018 0.019018
vt 0.122790 0.019018
vt 0.110979 0.032913
vt 0.030829 0.032913
vt 0.122790 0.457035
vt 0.019018 0.457035
vt 0.030829 0.443140
vt 0.110979 0.443140
vt 0.376699 0.579983
vt 0.376699 0.476211
vt 0.412728 0.476211
vt 0.412728 0.579983
vt 0.252787 0.032913
vt 0.264598 0.019018
vt 0.264598 0.457035
vt 0.160826 0.457035
vt 0.160826 0.019018
vt 0.172637 0.032913
vt 0.172637 0.443140
vt 0.252787 0.443140
vt 0.583357 0.019018
vt 0.583357 0.457035
vt 0.547328 0.457035
vt 0.547328 0.019018
vt 0.657422 0.019018
vt 0.657422 0.457035
vt 0.621393 0.457035
vt 0.621393 0.019018
vt 0.486793 0.556361
vt 0.450764 0.556361
vt 0.450764 0.476211
vt 0.486793 0.476211
vt 0.019018 0.495071
vt 0.055047 0.495071
vt 0.055047 0.575221
vt 0.019018 0.575221
vt 0.695458 0.019018
vt 0.731487 0.019018
vt 0.731487 0.429244
vt 0.695458 0.429244
vt 0.805552 0.019018
vt 0.805552 0.429244
vt 0.769523 0.429244
vt 0.769523 0.019018
vt 0.792072 0.673307
vt 0.792072 0.630426
vt 0.802966 0.630426
vt 0.802966 0.673308
vt 0.167030 0.621799
vt 0.167030 0.578754
vt 0.177924 0.578754
vt 0.178072 0.593743
vt 0.177924 0.600562
vt 0.177924 0.606891
vt 0.177924 0.621799
vt 0.399738 0.876266
vt 0.399776 0.864500
vt 0.410670 0.864504
vt 0.410632 0.876254
vt 0.572346 0.619344
vt 0.572346 0.604455
vt 0.572346 0.598043
vt 0.572198 0.591091
vt 0.572346 0.576299
vt 0.583240 0.576299
vt 0.583240 0.619344
vt 0.399793 0.882956
vt 0.410686 0.882944
vt 0.632156 0.948104
vt 0.621275 0.948099
vt 0.621275 0.937206
vt 0.632156 0.937211
vt 0.858180 0.819330
vt 0.847287 0.819378
vt 0.847318 0.817084
vt 0.858212 0.817036
vt 0.361030 0.935492
vt 0.350137 0.935694
vt 0.350137 0.923956
vt 0.361030 0.923908
vt 0.298884 0.966940
vt 0.298884 0.977834
vt 0.296581 0.977834
vt 0.296581 0.966941
vt 0.399793 0.859505
vt 0.410686 0.859444
vt 0.563549 0.596490
vt 0.560073 0.576225
vt 0.190197 0.578877
vt 0.186721 0.599009
vt 0.901750 0.244885
vt 0.890856 0.244684
vt 0.890856 0.230933
vt 0.901750 0.231134
vt 0.847318 0.793817
vt 0.858212 0.793664
vt 0.562194 0.594638
vt 0.547328 0.576591
vt 0.202943 0.579243
vt 0.188076 0.597156
vt 0.907165 0.870155
vt 0.896270 0.870126
vt 0.896270 0.857414
vt 0.907165 0.857443
vt 0.179332 0.608537
vt 0.190496 0.605208
vt 0.202384 0.621610
vt 0.189741 0.621388
vt 0.570938 0.606018
vt 0.559774 0.602690
vt 0.901758 0.140872
vt 0.890865 0.140910
vt 0.890856 0.137441
vt 0.901750 0.137403
vt 0.950509 0.793664
vt 0.950509 0.804557
vt 0.942442 0.804557
vt 0.942442 0.793664
vt 0.846669 0.979460
vt 0.846669 0.968566
vt 0.848392 0.968563
vt 0.848392 0.979457
vt 0.574633 0.598447
vt 0.573225 0.606422
vt 0.177045 0.608940
vt 0.175637 0.600966
vt 0.952790 0.857414
vt 0.952790 0.868307
vt 0.945200 0.868328
vt 0.945200 0.857435
vt 0.890856 0.389370
vt 0.901750 0.389362
vt 0.901750 0.403073
vt 0.890856 0.403081
vt 0.560529 0.618870
vt 0.547886 0.619091
vt 0.890865 0.126363
vt 0.901758 0.126325
vt 0.474358 0.594398
vt 0.474358 0.602563
vt 0.464601 0.602564
vt 0.464601 0.594400
vt 0.485565 0.594396
vt 0.485565 0.602561
vt 0.093083 0.668001
vt 0.093083 0.659835
vt 0.109734 0.659835
vt 0.109734 0.668001
vt 0.621275 0.503235
vt 0.621275 0.495071
vt 0.632482 0.495073
vt 0.632482 0.503237
vt 0.485565 0.611134
vt 0.474358 0.611136
vt 0.313232 0.784824
vt 0.313232 0.795893
vt 0.296581 0.795893
vt 0.296581 0.784824
vt 0.621275 0.511809
vt 0.632482 0.511811
vt 0.632482 0.519969
vt 0.621275 0.519967
vt 0.508935 0.878197
vt 0.508935 0.894849
vt 0.500361 0.894849
vt 0.500361 0.878197
vt 0.109734 0.676575
vt 0.093083 0.676575
vt 0.093083 0.684735
vt 0.109734 0.684735
vt 0.109734 0.693871
vt 0.093083 0.693871
vt 0.485565 0.619292
vt 0.474358 0.619294
vt 0.558964 0.883762
vt 0.558964 0.900413
vt 0.547328 0.900413
vt 0.547328 0.883762
vt 0.109734 0.703843
vt 0.093083 0.703843
vt 0.899992 0.019018
vt 0.899992 0.035669
vt 0.890856 0.035669
vt 0.890856 0.019018
vt 0.632482 0.529104
vt 0.621275 0.529102
vt 0.485565 0.628427
vt 0.474358 0.628429
vt 0.809251 0.814591
vt 0.809251 0.825661
vt 0.792600 0.825661
vt 0.792600 0.814591
vt 0.899180 0.282921
vt 0.899180 0.299572
vt 0.890856 0.299572
vt 0.890856 0.282921
vt 0.632482 0.539074
vt 0.621275 0.539072
vt 0.485565 0.638397
vt 0.474358 0.638399
vt 0.465931 0.638401
vt 0.465931 0.628431
vt 0.792600 0.806265
vt 0.809251 0.806265
vt 0.640910 0.529106
vt 0.640910 0.539076
vt 0.928448 0.672114
vt 0.809251 0.802528
vt 0.792600 0.802528
vt 0.792600 0.801296
vt 0.809251 0.801296
vt 0.792600 0.800060
vt 0.809251 0.800060
vt 0.792600 0.798841
vt 0.809251 0.798841
vt 0.792600 0.797659
vt 0.809251 0.797659
vt 0.792600 0.796582
vt 0.809251 0.796582
vt 0.792600 0.795537
vt 0.809251 0.795537
vt 0.792600 0.793664
vt 0.809251 0.793664
vt 0.938992 0.566160
vt 0.938992 0.549509
vt 0.940008 0.549509
vt 0.940008 0.566160
vt 0.941107 0.549509
vt 0.941107 0.566160
vt 0.942270 0.549509
vt 0.942270 0.566160
vt 0.943479 0.549509
vt 0.943479 0.566160
vt 0.451986 0.942661
vt 0.451986 0.959313
vt 0.450764 0.959313
vt 0.450764 0.942661
vt 0.946382 0.957837
vt 0.946382 0.974488
vt 0.945867 0.974488
vt 0.945867 0.957837
vt 0.462147 0.638402
vt 0.460913 0.638321
vt 0.459699 0.638080
vt 0.458528 0.637682
vt 0.457418 0.637136
vt 0.456390 0.636745
vt 0.455460 0.635929
vt 0.453757 0.634704
vt 0.453069 0.633676
vt 0.452522 0.632567
vt 0.452125 0.631396
vt 0.451883 0.630183
vt 0.450841 0.628949
vt 0.450841 0.628434
vt 0.656000 0.529109
vt 0.656000 0.529624
vt 0.654957 0.530858
vt 0.654716 0.532071
vt 0.654318 0.533242
vt 0.653771 0.534351
vt 0.653084 0.535379
vt 0.651381 0.536604
vt 0.650451 0.537419
vt 0.649422 0.537811
vt 0.648313 0.538357
vt 0.647141 0.538755
vt 0.645928 0.538996
vt 0.644694 0.539076
vt 0.547328 0.831328
vt 0.563979 0.831328
vt 0.564352 0.834563
vt 0.547700 0.834563
vt 0.564352 0.845726
vt 0.547700 0.845726
vt 0.642239 0.495075
vt 0.642239 0.503239
vt 0.313232 0.805530
vt 0.296581 0.805530
vt 0.900394 0.478176
vt 0.900394 0.494828
vt 0.890756 0.494828
vt 0.890756 0.478176
vt 0.547328 0.819520
vt 0.563979 0.819520
vt 0.296581 0.808983
vt 0.313232 0.808983
vt 0.313232 0.811177
vt 0.296581 0.811177
vt 0.313232 0.813325
vt 0.296581 0.813325
vt 0.313232 0.815319
vt 0.296581 0.815319
vt 0.313232 0.817060
vt 0.296581 0.817060
vt 0.943562 0.478176
vt 0.943562 0.494828
vt 0.941991 0.494828
vt 0.941991 0.478176
vt 0.940252 0.494828
vt 0.940252 0.478176
vt 0.938430 0.494828
vt 0.938430 0.478176
vt 0.645735 0.495075
vt 0.647924 0.495281
vt 0.650003 0.495885
vt 0.651868 0.496858
vt 0.653426 0.498151
vt 0.654597 0.499699
vt 0.655325 0.501425
vt 0.655572 0.503242
vt 0.966483 0.672114
vt 0.451269 0.602567
vt 0.451516 0.600750
vt 0.452243 0.599024
vt 0.453415 0.597476
vt 0.454972 0.596183
vt 0.456837 0.595210
vt 0.458916 0.594606
vt 0.461105 0.594401
vt 0.206513 0.914802
vt 0.206513 0.931454
vt 0.204627 0.931454
vt 0.204627 0.914802
vt 0.202833 0.931454
vt 0.202833 0.914802
vt 0.201309 0.931454
vt 0.201309 0.914802
vt 0.197211 0.876766
vt 0.197211 0.860115
vt 0.198875 0.860115
vt 0.198875 0.876766
vt 0.200732 0.860115
vt 0.200732 0.876766
vt 0.206513 0.860115
vt 0.206513 0.876766
vt 0.097850 0.882763
vt 0.098084 0.899415
vt 0.093083 0.899415
vt 0.093083 0.882763
vt 0.464601 0.614371
vt 0.457297 0.614372
vt 0.455434 0.614078
vt 0.453754 0.613222
vt 0.452420 0.611889
vt 0.451564 0.610209
vt 0.451269 0.608347
vt 0.655572 0.509022
vt 0.655277 0.510884
vt 0.654420 0.512564
vt 0.653087 0.513897
vt 0.651407 0.514752
vt 0.649544 0.515047
vt 0.642239 0.515046
vt 0.635129 0.882519
vt 0.635129 0.899171
vt 0.621275 0.899171
vt 0.621275 0.882519
vt 0.652915 0.517220
vt 0.653425 0.517645
vt 0.652602 0.518284
vt 0.653886 0.518221
vt 0.654251 0.518890
vt 0.654654 0.519589
vt 0.655176 0.520248
vt 0.451664 0.619573
vt 0.452186 0.618914
vt 0.454238 0.617609
vt 0.452590 0.618216
vt 0.452955 0.617546
vt 0.453415 0.616970
vt 0.453926 0.616545
vt 0.102294 0.899415
vt 0.102294 0.882763
vt 0.102962 0.882769
vt 0.102962 0.899421
vt 0.103668 0.882787
vt 0.103668 0.899438
vt 0.104344 0.882814
vt 0.104344 0.899465
vt 0.104928 0.882848
vt 0.104928 0.899500
vt 0.944026 0.179233
vt 0.944026 0.195885
vt 0.943455 0.195847
vt 0.943455 0.179196
vt 0.939785 0.195597
vt 0.939785 0.178945
vt 0.641802 0.518282
vt 0.100610 0.899415
vt 0.100151 0.882763
vt 0.655886 0.522377
vt 0.656077 0.524675
vt 0.655827 0.529446
vt 0.641802 0.529443
vt 0.465038 0.617607
vt 0.465038 0.628768
vt 0.451014 0.628771
vt 0.450764 0.623765
vt 0.451076 0.621246
vt 0.904407 0.793664
vt 0.904407 0.810315
vt 0.896247 0.810315
vt 0.896247 0.793664
vt 0.644264 0.511813
vt 0.644264 0.519971
vt 0.754364 0.866340
vt 0.754364 0.882992
vt 0.742726 0.882992
vt 0.742726 0.866340
vt 0.462577 0.619296
vt 0.462577 0.611138
vt 0.742726 0.478999
vt 0.742726 0.467280
vt 0.754445 0.467280
vt 0.754445 0.478999
vt 0.621275 0.588831
vt 0.621275 0.577112
vt 0.632994 0.577112
vt 0.632994 0.588831
vt 0.841001 0.489895
vt 0.841001 0.478176
vt 0.852720 0.478176
vt 0.852720 0.489895
vt 0.040918 0.624975
vt 0.040918 0.613256
vt 0.052637 0.613256
vt 0.052637 0.624975
vt 0.052637 0.646553
vt 0.040918 0.646553
vt 0.308300 0.917185
vt 0.308300 0.928904
vt 0.296581 0.928904
vt 0.296581 0.917185
vt 0.052637 0.657449
vt 0.040918 0.657449
vt 0.632994 0.610409
vt 0.621275 0.610409
vt 0.754445 0.500577
vt 0.742726 0.500577
vt 0.852720 0.511473
vt 0.841001 0.511473
vt 0.754445 0.794685
vt 0.754445 0.806405
vt 0.742726 0.806405
vt 0.742726 0.794685
vt 0.632994 0.621305
vt 0.621275 0.621305
vt 0.654895 0.610409
vt 0.654895 0.621305
vt 0.754445 0.511473
vt 0.742726 0.511473
vt 0.693794 0.936192
vt 0.693794 0.924473
vt 0.704691 0.924473
vt 0.704691 0.936192
vt 0.754445 0.828305
vt 0.742726 0.828305
vt 0.030737 0.882744
vt 0.019018 0.882744
vt 0.019018 0.860844
vt 0.030737 0.860844
vt 0.019018 0.657449
vt 0.019018 0.646553
vt 0.399738 0.821408
vt 0.399738 0.812212
vt 0.410281 0.812212
vt 0.410281 0.821408
vt 0.351389 0.746672
vt 0.351268 0.735619
vt 0.361409 0.732299
vt 0.361409 0.743392
vt 0.841001 0.584651
vt 0.841001 0.576020
vt 0.851544 0.576020
vt 0.851544 0.584651
vt 0.399444 0.743392
vt 0.399444 0.732299
vt 0.409586 0.735619
vt 0.409464 0.746672
vt 0.103626 0.937535
vt 0.103626 0.948078
vt 0.093083 0.948078
vt 0.093083 0.937535
vt 0.352139 0.701715
vt 0.360458 0.698992
vt 0.948539 0.244463
vt 0.939785 0.244463
vt 0.939785 0.233921
vt 0.948539 0.233921
vt 0.841001 0.549509
vt 0.851544 0.549509
vt 0.399738 0.784707
vt 0.410281 0.784707
vt 0.400395 0.698992
vt 0.408714 0.701715
vt 0.742726 0.676101
vt 0.742726 0.664491
vt 0.754037 0.664491
vt 0.754037 0.676101
vt 0.302634 0.742838
vt 0.304069 0.731302
vt 0.312991 0.734627
vt 0.313232 0.746788
vt 0.742726 0.594176
vt 0.742726 0.582014
vt 0.754037 0.582014
vt 0.754037 0.594176
vt 0.019018 0.743281
vt 0.019259 0.731120
vt 0.028181 0.727795
vt 0.029616 0.739331
vt 0.803911 0.924011
vt 0.803911 0.935322
vt 0.792600 0.935322
vt 0.792600 0.924011
vt 0.742726 0.632212
vt 0.754037 0.632212
vt 0.508935 0.944195
vt 0.499978 0.944195
vt 0.499978 0.932884
vt 0.508935 0.932884
vt 0.019018 0.698613
vt 0.027411 0.695485
vt 0.304839 0.698992
vt 0.313232 0.702120
vt 0.742726 0.549509
vt 0.754037 0.549509
vt 0.147770 0.806792
vt 0.147832 0.798444
vt 0.170253 0.798362
vt 0.170191 0.806710
vt 0.101286 0.507926
vt 0.093083 0.500939
vt 0.103951 0.495116
vt 0.108258 0.504875
vt 0.195867 0.495116
vt 0.191559 0.504875
vt 0.177898 0.498860
vt 0.185889 0.495071
vt 0.206735 0.500939
vt 0.198532 0.507926
vt 0.170209 0.813617
vt 0.147788 0.813699
vt 0.147878 0.742075
vt 0.147770 0.731838
vt 0.170191 0.731838
vt 0.170299 0.742075
vt 0.399738 0.970403
vt 0.147878 0.760326
vt 0.147878 0.751999
vt 0.170299 0.751999
vt 0.170299 0.760326
vt 0.170235 0.819139
vt 0.147812 0.818919
vt 0.113928 0.495071
vt 0.121919 0.498860
vt 0.117512 0.524271
vt 0.130078 0.523897
vt 0.126330 0.532489
vt 0.114631 0.527452
vt 0.147927 0.659856
vt 0.170348 0.659835
vt 0.170337 0.664379
vt 0.147916 0.664811
vt 0.125610 0.503370
vt 0.129021 0.508877
vt 0.130699 0.515322
vt 0.131121 0.519752
vt 0.118794 0.522085
vt 0.118909 0.519372
vt 0.118762 0.513597
vt 0.116601 0.510708
vt 0.113722 0.507708
vt 0.186384 0.507054
vt 0.183497 0.509979
vt 0.181270 0.513013
vt 0.181048 0.518373
vt 0.181061 0.520997
vt 0.182305 0.524271
vt 0.169740 0.523897
vt 0.169157 0.518162
vt 0.169735 0.513285
vt 0.171216 0.507775
vt 0.174380 0.502979
vt 0.170329 0.669550
vt 0.147908 0.670720
vt 0.170331 0.675212
vt 0.147910 0.677336
vt 0.170336 0.680129
vt 0.147915 0.681788
vt 0.170348 0.685746
vt 0.147927 0.685767
vt 0.170253 0.822079
vt 0.147829 0.821866
vt 0.638905 0.821623
vt 0.638905 0.844056
vt 0.636346 0.844154
vt 0.636211 0.821725
vt 0.630644 0.844335
vt 0.630931 0.821894
vt 0.627940 0.844420
vt 0.628330 0.821976
vt 0.625594 0.844484
vt 0.624911 0.822074
vt 0.119932 0.538352
vt 0.109586 0.529198
vt 0.170191 0.693781
vt 0.147770 0.693802
vt 0.185187 0.527452
vt 0.173487 0.532489
vt 0.621958 0.843546
vt 0.621275 0.821136
vt 0.179886 0.538352
vt 0.190231 0.529198
vt 0.194747 0.528641
vt 0.187149 0.540660
vt 0.473185 0.709668
vt 0.450764 0.709670
vt 0.450777 0.703396
vt 0.473198 0.703394
vt 0.107999 0.822306
vt 0.107999 0.844728
vt 0.103153 0.844728
vt 0.103153 0.822306
vt 0.105071 0.528641
vt 0.112669 0.540660
vt 0.105328 0.540719
vt 0.100932 0.526110
vt 0.098604 0.844728
vt 0.098604 0.822306
vt 0.450782 0.696182
vt 0.473203 0.696181
vt 0.473203 0.688843
vt 0.450782 0.688845
vt 0.450775 0.681927
vt 0.473196 0.681926
vt 0.198886 0.526110
vt 0.194489 0.540719
vt 0.094235 0.844728
vt 0.094235 0.822306
vt 0.201349 0.537862
vt 0.199998 0.525655
vt 0.200149 0.525309
vt 0.206735 0.532914
vt 0.093083 0.844728
vt 0.093083 0.822306
vt 0.098469 0.537862
vt 0.099819 0.525655
vt 0.508763 0.747705
vt 0.508763 0.770126
vt 0.500361 0.771301
vt 0.500361 0.748881
vt 0.939785 0.360029
vt 0.939785 0.337608
vt 0.940148 0.337608
vt 0.940148 0.360029
vt 0.093083 0.532914
vt 0.099669 0.525309
vt 0.450764 0.676438
vt 0.473185 0.676437
vt 0.792072 0.592390
vt 0.792072 0.549509
vt 0.802966 0.549509
vt 0.802966 0.592390
vt 0.093083 0.621799
vt 0.093083 0.578754
vt 0.103976 0.578754
vt 0.104124 0.593743
vt 0.103976 0.600562
vt 0.103976 0.606891
vt 0.103976 0.621799
vt 0.847287 0.874236
vt 0.847325 0.862470
vt 0.858218 0.862474
vt 0.858180 0.874224
vt 0.572346 0.538190
vt 0.572346 0.523301
vt 0.572346 0.516889
vt 0.572198 0.509937
vt 0.572346 0.495144
vt 0.583240 0.495144
vt 0.583240 0.538190
vt 0.847341 0.880926
vt 0.858235 0.880914
vt 0.948097 0.293818
vt 0.937216 0.293814
vt 0.937216 0.282921
vt 0.948097 0.282925
vt 0.461657 0.853800
vt 0.450764 0.853848
vt 0.450795 0.851554
vt 0.461689 0.851505
vt 0.753619 0.932611
vt 0.742726 0.932814
vt 0.742726 0.921075
vt 0.753619 0.921028
vt 0.898574 0.958196
vt 0.898574 0.969089
vt 0.896270 0.969090
vt 0.896270 0.958196
vt 0.847341 0.857475
vt 0.858235 0.857414
vt 0.563549 0.515336
vt 0.560073 0.495071
vt 0.116250 0.578877
vt 0.112773 0.599009
vt 0.901750 0.192897
vt 0.890856 0.192697
vt 0.890856 0.178945
vt 0.901750 0.179146
vt 0.450795 0.828287
vt 0.461689 0.828133
vt 0.562194 0.513483
vt 0.547328 0.495437
vt 0.128995 0.579243
vt 0.114129 0.597156
vt 0.461658 0.904625
vt 0.450764 0.904596
vt 0.450764 0.891884
vt 0.461658 0.891913
vt 0.105384 0.608537
vt 0.116548 0.605208
vt 0.128437 0.621610
vt 0.115793 0.621388
vt 0.570938 0.524864
vt 0.559774 0.521536
vt 0.901758 0.088252
vt 0.890865 0.088290
vt 0.890856 0.084821
vt 0.901750 0.084783
vt 0.947861 0.126325
vt 0.947861 0.137219
vt 0.939794 0.137219
vt 0.939794 0.126325
vt 0.977195 0.633583
vt 0.977195 0.622689
vt 0.978918 0.622686
vt 0.978918 0.633580
vt 0.574633 0.517293
vt 0.573225 0.525268
vt 0.103097 0.608940
vt 0.101689 0.600966
vt 0.252360 0.940642
vt 0.252360 0.951536
vt 0.244770 0.951557
vt 0.244770 0.940663
vt 0.890856 0.337615
vt 0.901750 0.337608
vt 0.901750 0.351319
vt 0.890856 0.351326
vt 0.560529 0.537715
vt 0.547886 0.537937
vt 0.890865 0.073743
vt 0.901758 0.073705
vt 0.244770 0.751134
vt 0.244770 0.739765
vt 0.256134 0.739765
vt 0.256134 0.751134
vt 0.302634 0.629388
vt 0.302634 0.618019
vt 0.313998 0.618019
vt 0.313998 0.629388
vt 0.939785 0.409457
vt 0.939785 0.398065
vt 0.947823 0.398065
vt 0.947711 0.409457
vt 0.400030 0.629388
vt 0.400030 0.618019
vt 0.411394 0.618019
vt 0.411394 0.629388
vt 0.244770 0.820739
vt 0.256139 0.820738
vt 0.256139 0.841289
vt 0.244770 0.841290
vt 0.841005 0.634033
vt 0.841001 0.622688
vt 0.852370 0.622686
vt 0.852374 0.634032
vt 0.256139 0.902607
vt 0.244770 0.902599
vt 0.244770 0.890325
vt 0.256139 0.891234
vt 0.841008 0.644050
vt 0.852377 0.644048
vt 0.852377 0.647510
vt 0.841008 0.647511
vt 0.852374 0.650785
vt 0.841006 0.650786
vt 0.852370 0.653651
vt 0.841001 0.653652
vt 0.939794 0.085074
vt 0.939794 0.073705
vt 0.942077 0.073711
vt 0.942077 0.085080
vt 0.944773 0.073716
vt 0.944773 0.085084
vt 0.947699 0.073717
vt 0.947699 0.085086
vt 0.324030 0.618019
vt 0.327472 0.618406
vt 0.330680 0.619542
vt 0.333434 0.621349
vt 0.335548 0.623703
vt 0.336876 0.626445
vt 0.337329 0.629388
vt 0.326328 0.629388
vt 0.742726 0.970849
vt 0.388604 0.629388
vt 0.376699 0.629388
vt 0.377152 0.626445
vt 0.378480 0.623703
vt 0.380594 0.621349
vt 0.383348 0.619542
vt 0.386556 0.618406
vt 0.389998 0.618019
vt 0.326328 0.637425
vt 0.326328 0.648026
vt 0.308605 0.648026
vt 0.308605 0.637425
vt 0.952007 0.908191
vt 0.951557 0.919587
vt 0.948670 0.919700
vt 0.948887 0.908313
vt 0.945867 0.919801
vt 0.945867 0.908423
vt 0.900957 0.566158
vt 0.889587 0.566135
vt 0.889582 0.563468
vt 0.900952 0.563485
vt 0.889580 0.560033
vt 0.900949 0.560046
vt 0.889580 0.556064
vt 0.900949 0.556074
vt 0.889582 0.551832
vt 0.900951 0.551840
vt 0.889584 0.549509
vt 0.900953 0.549517
vt 0.792600 0.973358
vt 0.388604 0.637314
vt 0.388604 0.648026
vt 0.385523 0.647470
vt 0.382652 0.645840
vt 0.380186 0.643248
vt 0.378294 0.639869
vt 0.377104 0.635935
vt 0.376699 0.631713
vt 0.337329 0.631713
vt 0.336954 0.635935
vt 0.335855 0.639869
vt 0.334107 0.643248
vt 0.331829 0.645840
vt 0.329176 0.647470
vt 0.159175 0.864752
vt 0.147770 0.864753
vt 0.147770 0.860116
vt 0.159175 0.860115
vt 0.406328 0.637314
vt 0.406328 0.648026
vt 0.159175 0.882461
vt 0.147770 0.882462
vt 0.792600 0.863698
vt 0.804005 0.863697
vt 0.804005 0.881352
vt 0.792600 0.881353
vt 0.019187 0.970382
vt 0.019187 0.980982
vt 0.019018 0.980982
vt 0.019018 0.970382
vt 0.804005 0.885975
vt 0.792600 0.885976
vt 0.303964 0.648026
vt 0.303964 0.637425
vt 0.410969 0.637314
vt 0.410969 0.648026
vt 0.939160 0.622686
vt 0.939048 0.634078
vt 0.928448 0.634078
vt 0.928448 0.622686
vt 0.147770 0.980811
vt 0.147770 0.970099
vt 0.147939 0.970099
vt 0.147939 0.980811
vt 0.201309 0.980894
vt 0.201309 0.969489
vt 0.201477 0.969489
vt 0.201477 0.980894
vt 0.978184 0.349012
vt 0.978184 0.337608
vt 0.978352 0.337608
vt 0.978352 0.349012
vt 0.302634 0.649951
vt 0.313998 0.649951
vt 0.313998 0.660956
vt 0.302634 0.660956
vt 0.411394 0.649951
vt 0.400030 0.649951
vt 0.256134 0.771697
vt 0.244770 0.771697
vt 0.411050 0.932360
vt 0.399738 0.932368
vt 0.399738 0.920999
vt 0.411050 0.920991
vt 0.256139 0.852288
vt 0.244770 0.852290
vt 0.256134 0.782702
vt 0.244770 0.782702
vt 0.411394 0.660956
vt 0.400030 0.660956
vt 0.792481 0.477715
vt 0.792481 0.467280
vt 0.802916 0.467280
vt 0.802916 0.477715
vt 0.792600 0.724572
vt 0.792600 0.714137
vt 0.803035 0.714137
vt 0.803035 0.724572
vt 0.019018 0.791752
vt 0.019018 0.781317
vt 0.029453 0.781317
vt 0.029453 0.791752
vt 0.351268 0.795142
vt 0.351268 0.784707
vt 0.361703 0.784707
vt 0.361703 0.795142
vt 0.361703 0.826199
vt 0.351268 0.826199
vt 0.557763 0.938449
vt 0.557763 0.948884
vt 0.547328 0.948884
vt 0.547328 0.938449
vt 0.949171 0.714137
vt 0.949171 0.724572
vt 0.938736 0.724572
vt 0.938736 0.714137
vt 0.803035 0.755628
vt 0.792600 0.755628
vt 0.802916 0.508771
vt 0.792481 0.508771
vt 0.029453 0.822808
vt 0.019018 0.822808
vt 0.621275 0.752274
vt 0.621275 0.740708
vt 0.632841 0.740708
vt 0.632841 0.752274
vt 0.093083 0.753444
vt 0.093083 0.741878
vt 0.104647 0.741881
vt 0.104647 0.753446
vt 0.030458 0.932346
vt 0.019018 0.932346
vt 0.019018 0.920780
vt 0.030458 0.920780
vt 0.450764 0.759275
vt 0.450764 0.747710
vt 0.462326 0.747705
vt 0.462326 0.759270
vt 0.350137 0.973730
vt 0.858234 0.930528
vt 0.846669 0.930527
vt 0.846669 0.918961
vt 0.858234 0.918962
vt 0.693794 0.974227
vt 0.462326 0.790093
vt 0.450764 0.790098
vt 0.104647 0.784271
vt 0.093083 0.784269
vt 0.632841 0.783100
vt 0.621275 0.783101
vt 0.159335 0.932064
vt 0.147770 0.932064
vt 0.147770 0.920498
vt 0.159335 0.920498
vt 0.938028 0.030584
vt 0.938028 0.019018
vt 0.947655 0.019018
vt 0.947787 0.030584
vt 0.500361 0.809337
vt 0.500361 0.840161
vt 0.500361 0.819069
vt 0.890412 0.653509
vt 0.890412 0.622686
vt 0.890412 0.632552
vt 0.907831 0.920160
vt 0.896270 0.919803
vt 0.896270 0.908191
vt 0.907831 0.908547
vt 0.308153 0.879150
vt 0.296599 0.878616
vt 0.296581 0.855095
vt 0.308153 0.855276
vt 0.361703 0.885873
vt 0.350137 0.885740
vt 0.350137 0.864234
vt 0.361703 0.864367
vt 0.547787 0.700720
vt 0.547328 0.679767
vt 0.561673 0.657978
vt 0.573258 0.657379
vt 0.561540 0.678767
vt 0.647202 0.681586
vt 0.646740 0.702672
vt 0.632785 0.680388
vt 0.621275 0.659341
vt 0.632859 0.659801
vt 0.547328 0.738758
vt 0.558894 0.738755
vt 0.558894 0.781481
vt 0.547328 0.781484
vt 0.632520 0.702347
vt 0.621275 0.702402
vt 0.890234 0.714137
vt 0.900700 0.719068
vt 0.900700 0.731665
vt 0.890325 0.726554
vt 0.841070 0.717319
vt 0.852198 0.714137
vt 0.852098 0.736754
vt 0.841070 0.740252
vt 0.573258 0.700443
vt 0.561855 0.700367
vt 0.244770 0.579382
vt 0.244770 0.495071
vt 0.254003 0.495071
vt 0.254003 0.579382
vt 0.386945 0.438175
vt 0.302634 0.438175
vt 0.302634 0.019018
vt 0.386945 0.019018
vt 0.244770 0.701729
vt 0.244770 0.617418
vt 0.254003 0.617418
vt 0.254003 0.701729
vt 0.509292 0.438175
vt 0.424981 0.438175
vt 0.424981 0.019018
vt 0.509292 0.019018
vt 0.852821 0.019018
vt 0.852821 0.438175
vt 0.843588 0.438175
vt 0.843588 0.019018
vt 0.704691 0.467280
vt 0.704691 0.886438
vt 0.695458 0.886438
vt 0.695458 0.467280
s 0
usemtl Material.007
f 1/1/1 2/2/1 4/3/1 3/4/1
f 8/5/2 7/6/2 11/7/2 12/8/2
f 7/6/2 3/9/2 4/10/2 8/5/2 12/8/2 10/11/2 9/12/2 11/7/2
f 7/13/3 8/14/3 6/15/3 5/16/3
f 15/17/4 1/18/4 5/19/4 6/20/4 2/21/4 16/22/4 14/23/4 13/24/4
f 2/21/4 1/18/4 15/17/4 16/22/4
f 3/25/5 7/26/5 5/27/5 1/28/5
f 8/29/6 4/30/6 2/31/6 6/32/6
f 15/33/3 9/34/3 10/35/3 16/36/3
f 14/37/1 12/38/1 11/39/1 13/40/1
f 13/41/6 11/42/6 9/43/6 15/44/6
f 10/45/5 12/46/5 14/47/5 16/48/5
f 17/49/1 18/50/1 20/51/1 19/52/1
f 19/53/2 20/54/2 24/55/2 26/56/2 28/57/2 30/58/2 23/59/2
f 23/60/3 30/61/3 29/62/3 21/63/3
f 21/64/4 29/65/4 27/66/4 25/67/4 22/68/4 18/69/4 17/70/4
f 19/71/5 23/60/5 21/63/5 17/72/5
f 24/73/6 20/74/6 18/75/6 22/76/6
f 33/77/7 34/78/7 38/79/7 37/80/7
f 25/81/8 26/82/8 24/83/8 22/84/8
f 27/85/9 28/86/9 44/87/9 43/88/9
f 29/62/3 30/61/3 28/89/3 27/90/3
f 25/67/4 27/66/4 33/91/4 31/92/4
f 28/57/2 26/56/2 32/93/2 34/94/2
f 26/95/10 25/96/10 31/97/10 32/98/10
f 37/80/11 38/79/11 36/99/11 35/100/11
f 31/92/12 33/91/12 37/101/12 35/102/12
f 34/94/13 32/93/13 36/103/13 38/104/13
f 32/105/14 31/106/14 35/107/14 36/108/14
f 40/109/15 42/110/15 50/111/15 48/112/15
f 33/91/16 27/66/16 39/113/16 41/114/16
f 34/115/17 33/116/17 41/117/17 42/118/17
f 28/57/18 34/94/18 42/110/18 40/109/18
f 43/119/19 44/120/19 46/121/19 45/122/19
f 40/123/20 39/124/20 45/125/20 46/126/20
f 39/113/21 27/66/21 43/127/21 45/128/21
f 28/57/22 40/109/22 46/129/22 44/130/22
f 47/131/23 48/132/23 50/133/23 49/134/23
f 39/135/24 40/136/24 48/137/24 47/138/24
f 41/114/25 39/113/25 47/139/25 49/140/25
f 42/118/26 41/117/26 49/141/26 50/142/26
f 54/143/4 53/144/4 113/145/4 116/146/4
f 53/144/4 54/143/4 58/147/4 57/148/4
f 57/149/1 58/150/1 56/151/1 55/152/1
f 55/153/2 56/154/2 52/155/2 51/156/2
f 53/144/4 57/148/4 61/157/4 59/158/4
f 58/159/6 54/160/6 52/161/6 56/162/6
f 62/163/2 60/164/2 64/165/2 66/166/2
f 51/167/3 53/168/3 59/169/3 60/170/3
f 57/149/1 55/152/1 62/171/1 61/172/1
f 55/153/2 51/156/2 60/164/2 62/163/2
f 65/173/1 66/174/1 70/175/1 69/176/1
f 59/158/4 61/157/4 65/177/4 63/178/4
f 61/172/1 62/171/1 66/174/1 65/173/1
f 60/179/6 59/180/6 169/181/6 170/182/6
f 69/176/1 70/175/1 74/183/1 73/184/1
f 64/185/3 63/186/3 67/187/3 68/188/3
f 66/166/2 64/165/2 68/189/2 70/190/2
f 63/178/4 65/177/4 69/191/4 67/192/4
f 71/193/5 73/194/5 74/195/5 72/196/5
f 68/197/6 67/198/6 75/199/6 76/200/6
f 70/190/2 68/189/2 72/201/2 74/202/2
f 67/192/4 69/191/4 73/203/4 71/204/4
f 67/192/4 71/204/4 77/205/4 75/206/4
f 71/193/5 72/196/5 78/207/5 77/208/5
f 72/201/2 68/189/2 76/209/2 78/210/2
f 69/211/6 65/211/6 82/211/6 81/211/6
f 83/212/27 97/213/27 108/214/27 85/215/27
f 85/215/28 108/214/28 107/216/28 86/217/28
f 86/217/29 107/216/29 106/218/29 87/219/29
f 87/219/30 106/218/30 105/220/30 88/221/30
f 88/221/31 105/220/31 104/222/31 89/223/31
f 89/223/32 104/222/32 103/224/32 90/225/32
f 90/225/33 103/224/33 102/226/33 91/227/33
f 91/228/34 102/229/34 101/230/34 92/231/34
f 92/231/35 101/230/35 100/232/35 93/233/35
f 93/233/36 100/232/36 99/234/36 94/235/36
f 94/235/37 99/234/37 98/236/37 95/237/37
f 95/238/38 98/239/38 96/240/38 84/241/38
f 77/208/5 78/207/5 97/213/5 83/212/5
f 80/242/3 79/243/3 84/244/3 96/245/3
f 75/206/4 77/205/4 83/246/4 85/247/4 86/248/4 87/249/4 88/250/4 89/251/4 90/252/4 91/253/4 92/254/4 93/255/4 94/256/4 95/257/4 84/258/4 79/259/4
f 78/210/2 76/209/2 80/260/2 96/261/2 98/262/2 99/263/2 100/264/2 101/265/2 102/266/2 103/267/2 104/268/2 105/269/2 106/270/2 107/271/2 108/272/2 97/273/2
f 120/274/39 119/275/39 111/276/39 112/277/39
f 112/277/1 111/276/1 149/278/1 151/279/1
f 51/156/2 52/155/2 115/280/2 114/281/2
f 52/161/6 54/160/6 116/282/6 115/283/6
f 53/284/5 51/285/5 114/286/5 113/287/5
f 113/288/1 114/289/1 119/275/1 120/274/1
f 121/290/40 130/291/40 136/292/40 123/293/40
f 123/293/41 136/292/41 135/294/41 124/295/41
f 124/295/42 135/294/42 134/296/42 125/297/42
f 125/297/43 134/296/43 133/298/43 126/299/43
f 126/300/44 133/301/44 132/302/44 127/303/44
f 127/303/45 132/302/45 131/304/45 128/305/45
f 128/305/46 131/304/46 129/306/46 122/307/46
f 114/281/2 115/280/2 121/308/2 123/309/2 124/310/2 125/311/2 126/312/2 127/313/2 128/314/2 122/315/2 118/315/2
f 118/316/6 122/316/6 129/316/6 117/316/6
f 115/283/6 116/282/6 130/291/6 121/290/6
f 116/146/4 113/145/4 117/317/4 129/317/4 131/318/4 132/319/4 133/320/4 134/321/4 135/322/4 136/323/4 130/324/4
f 137/325/47 144/326/47 148/327/47 139/328/47
f 139/328/48 148/327/48 147/329/48 140/330/48
f 140/330/49 147/329/49 146/331/49 141/332/49
f 141/333/50 146/334/50 145/335/50 142/336/50
f 142/336/51 145/335/51 143/337/51 138/338/51
f 118/339/3 117/340/3 138/338/3 143/337/3
f 109/341/52 110/342/52 152/343/52 150/344/52
f 117/317/4 113/145/4 120/345/4 137/346/4 139/347/4 140/348/4 141/349/4 142/350/4 138/351/4
f 114/281/2 118/315/2 143/352/2 145/353/2 146/354/2 147/355/2 148/356/2 144/357/2 119/358/2
f 151/359/5 149/360/5 150/361/5 152/362/5
f 153/363/53 156/364/53 155/365/53
f 156/364/54 157/366/54 155/365/54
f 157/366/55 158/367/55 155/365/55
f 158/367/56 159/368/56 155/365/56
f 159/368/57 154/369/57 155/365/57
f 160/370/58 163/371/58 162/372/58
f 163/371/59 164/373/59 162/372/59
f 164/373/60 165/374/60 162/372/60
f 165/374/61 166/375/61 162/372/61
f 166/375/62 161/376/62 162/372/62
f 160/377/63 154/378/63 159/379/63 163/380/63
f 163/380/64 159/379/64 158/381/64 164/382/64
f 164/382/65 158/381/65 157/383/65 165/384/65
f 165/384/66 157/383/66 156/385/66 166/386/66
f 166/387/67 156/388/67 153/389/67 161/390/67
f 144/391/68 137/392/68 161/390/68 153/389/68
f 119/358/69 144/357/69 153/363/69 155/365/69 111/393/69
f 154/378/70 160/377/70 167/394/70 168/395/70
f 111/393/2 155/365/2 154/369/2 168/396/2 109/397/2 150/398/2 149/399/2
f 137/346/71 120/345/71 112/400/71 162/372/71 161/376/71
f 160/370/4 162/372/4 112/400/4 151/401/4 152/402/4 110/403/4 167/404/4
f 168/395/72 167/394/72 110/342/72 109/341/72
f 170/405/3 169/406/3 171/407/3 172/408/3
f 64/165/2 60/164/2 170/409/2 172/410/2
f 63/411/5 64/412/5 172/413/5 171/414/5
f 59/158/4 63/178/4 171/415/4 169/416/4
f 173/417/1 174/418/1 176/419/1 175/420/1
f 175/421/2 176/422/2 180/423/2 179/424/2
f 179/425/3 180/426/3 178/427/3 177/428/3
f 177/429/4 178/430/4 174/431/4 173/432/4
f 177/429/4 173/432/4 182/433/4 184/434/4
f 180/435/6 176/436/6 174/437/6 178/438/6
f 184/434/4 182/433/4 186/439/4 188/440/4
f 175/421/2 179/424/2 183/441/2 181/442/2
f 173/417/1 175/420/1 181/443/1 182/444/1
f 179/425/3 177/428/3 184/445/3 183/446/3
f 185/447/5 187/448/5 188/449/5 186/450/5
f 181/442/2 183/441/2 187/451/2 185/452/2
f 187/451/2 183/441/2 190/453/2 192/454/2
f 182/444/1 181/443/1 185/455/1 186/456/1
f 190/457/3 189/458/3 191/459/3 192/460/3
f 188/449/5 187/448/5 192/461/5 191/462/5
f 183/463/6 184/464/6 189/465/6 190/466/6
f 184/434/4 188/440/4 191/467/4 189/468/4
f 193/469/73 194/470/73 196/471/73 195/472/73
f 195/473/2 196/474/2 200/475/2 199/476/2
f 199/477/74 200/478/74 198/479/74 197/480/74
f 197/481/4 198/482/4 194/483/4 193/484/4
f 195/485/5 199/486/5 197/487/5 193/488/5
f 200/475/2 196/474/2 202/489/2 203/490/2
f 203/491/6 202/492/6 201/493/6 204/494/6
f 198/479/75 200/478/75 203/495/75 204/496/75
f 196/471/76 194/470/76 201/497/76 202/498/76
f 194/483/4 198/482/4 204/499/4 201/500/4
f 205/501/77 206/502/77 208/503/77 207/504/77
f 207/505/2 208/506/2 212/507/2 211/508/2
f 211/509/78 212/510/78 210/511/78 209/512/78
f 209/513/4 210/514/4 206/515/4 205/516/4
f 207/517/5 211/518/5 209/519/5 205/520/5
f 208/503/79 206/502/79 213/521/79 214/522/79
f 215/523/6 214/524/6 213/525/6 216/526/6
f 206/515/4 210/514/4 216/527/4 213/528/4
f 212/507/2 208/506/2 214/529/2 215/530/2
f 210/511/80 212/510/80 215/531/80 216/532/80
f 217/533/81 218/534/81 220/535/81 219/536/81
f 219/537/82 220/538/82 224/539/82 223/540/82
f 222/541/4 221/542/4 229/543/4 230/544/4
f 221/542/83 222/541/83 218/545/83 217/546/83
f 219/536/84 223/547/84 221/548/84 217/533/84
f 224/549/85 220/550/85 218/551/85 222/552/85
f 224/553/6 223/553/6 225/553/6 226/553/6
f 228/554/86 227/555/86 230/556/86 229/557/86
f 221/548/87 223/547/87 244/558/87 243/559/87
f 224/549/88 222/552/88 230/556/88 227/555/88
f 223/540/2 224/539/2 227/560/2 228/561/2
f 232/562/89 234/563/89 256/564/89 254/565/89
f 228/566/90 229/567/90 236/568/90 235/569/90
f 223/540/2 228/561/2 235/570/2 237/571/2 240/572/2 241/573/2 234/563/2 232/562/2 252/574/2 250/575/2 248/576/2 246/577/2 244/578/2
f 229/543/4 221/542/4 243/579/4 245/580/4 247/581/4 249/582/4 251/583/4 231/584/4 233/585/4 242/586/4 239/587/4 238/588/4 236/589/4
f 235/569/91 236/568/91 238/590/91 237/591/91
f 237/591/92 238/590/92 239/592/92 240/593/92
f 240/593/93 239/592/93 242/594/93 241/595/93
f 241/595/94 242/594/94 233/596/94 234/597/94
f 243/559/95 244/558/95 246/598/95 245/599/95
f 245/600/96 246/601/96 248/602/96 247/603/96
f 247/603/97 248/602/97 250/604/97 249/605/97
f 249/605/98 250/604/98 252/606/98 251/607/98
f 251/607/99 252/606/99 232/608/99 231/609/99
f 254/565/100 256/564/100 260/610/100 258/611/100
f 234/597/101 233/596/101 255/612/101 256/613/101
f 233/585/102 231/584/102 253/614/102 255/615/102
f 231/609/103 232/608/103 254/616/103 253/617/103
f 259/618/104 257/619/104 261/620/104 263/621/104
f 256/622/105 255/623/105 259/624/105 260/625/105
f 255/615/106 253/614/106 257/619/106 259/618/106
f 253/626/107 254/627/107 258/628/107 257/629/107
f 262/630/108 264/631/108 268/632/108 266/633/108
f 257/629/109 258/628/109 262/634/109 261/635/109
f 258/611/110 260/610/110 264/631/110 262/630/110
f 260/625/111 259/624/111 263/636/111 264/637/111
f 268/638/112 267/639/112 271/640/112 272/641/112
f 264/637/113 263/636/113 267/639/113 268/638/113
f 263/621/114 261/620/114 265/642/114 267/643/114
f 261/635/115 262/634/115 266/644/115 265/645/115
f 271/646/116 269/647/116 273/648/116 275/649/116
f 267/643/117 265/642/117 269/647/117 271/646/117
f 265/645/118 266/644/118 270/650/118 269/651/118
f 266/633/119 268/632/119 272/652/119 270/653/119
f 273/654/120 274/655/120 276/656/120 275/657/120
f 269/658/121 270/659/121 274/660/121 273/661/121
f 270/653/122 272/652/122 276/662/122 274/663/122
f 272/641/123 271/640/123 275/664/123 276/665/123
f 277/666/1 278/667/1 280/668/1 279/669/1
f 279/670/2 280/671/2 284/672/2 286/673/2 288/674/2 290/675/2 283/676/2
f 283/677/3 290/678/3 289/679/3 281/680/3
f 281/681/4 289/682/4 287/683/4 285/684/4 282/685/4 278/686/4 277/687/4
f 279/688/5 283/677/5 281/680/5 277/689/5
f 284/690/6 280/691/6 278/692/6 282/693/6
f 293/694/124 294/695/124 298/696/124 297/697/124
f 285/698/8 286/699/8 284/700/8 282/701/8
f 287/702/125 288/703/125 304/704/125 303/705/125
f 289/679/3 290/678/3 288/706/3 287/707/3
f 285/684/4 287/683/4 293/708/4 291/709/4
f 288/674/2 286/673/2 292/710/2 294/711/2
f 286/712/126 285/713/126 291/714/126 292/715/126
f 297/697/127 298/696/127 296/716/127 295/717/127
f 291/709/128 293/708/128 297/718/128 295/719/128
f 294/711/129 292/710/129 296/720/129 298/721/129
f 292/722/130 291/723/130 295/724/130 296/725/130
f 300/726/131 302/727/131 310/728/131 308/729/131
f 293/708/132 287/683/132 299/730/132 301/731/132
f 294/732/133 293/733/133 301/734/133 302/735/133
f 288/674/134 294/711/134 302/727/134 300/726/134
f 303/736/135 304/737/135 306/738/135 305/739/135
f 300/740/136 299/741/136 305/742/136 306/743/136
f 299/730/137 287/683/137 303/744/137 305/745/137
f 288/674/138 300/726/138 306/746/138 304/747/138
f 307/748/139 308/749/139 310/750/139 309/751/139
f 299/752/140 300/753/140 308/754/140 307/755/140
f 301/731/141 299/730/141 307/756/141 309/757/141
f 302/735/142 301/734/142 309/758/142 310/759/142
f 311/760/1 312/761/1 314/762/1 313/763/1
f 313/764/2 314/765/2 318/766/2 317/767/2
f 322/768/143 319/769/143 338/770/143 337/771/143
f 315/772/4 316/773/4 312/774/4 311/775/4
f 317/776/3 315/777/3 370/778/3 369/779/3
f 318/780/6 314/781/6 312/782/6 316/783/6
f 315/784/5 317/785/5 319/786/5 322/787/5
f 323/788/144 331/789/144 336/790/144 325/791/144
f 325/791/145 336/790/145 335/792/145 326/793/145
f 326/793/146 335/792/146 334/794/146 327/795/146
f 327/796/147 334/797/147 333/798/147 328/799/147
f 328/799/148 333/798/148 332/800/148 329/801/148
f 329/801/149 332/800/149 330/802/149 324/803/149
f 317/767/2 318/766/2 323/804/2 325/805/2 326/806/2 327/807/2 328/808/2 329/809/2 324/810/2 320/810/2 319/811/2
f 320/812/6 324/812/6 330/812/6 321/812/6
f 318/780/6 316/783/6 331/789/6 323/788/6
f 316/773/4 315/772/4 322/813/4 321/814/4 330/814/4 332/815/4 333/816/4 334/817/4 335/818/4 336/819/4 331/820/4
f 338/821/150 339/822/150 357/823/150 358/824/150
f 341/825/151 349/826/151 354/827/151 343/828/151
f 343/828/152 354/827/152 353/829/152 344/830/152
f 344/831/153 353/832/153 352/833/153 345/834/153
f 345/834/154 352/833/154 351/835/154 346/836/154
f 346/836/155 351/835/155 350/837/155 347/838/155
f 347/838/156 350/837/156 348/839/156 342/840/156
f 320/841/3 321/842/3 342/840/3 348/839/3
f 340/843/6 339/843/6 349/843/6 341/843/6
f 321/814/4 322/813/4 337/844/4 340/845/4 341/845/4 343/846/4 344/847/4 345/848/4 346/849/4 347/850/4 342/851/4
f 319/811/2 320/810/2 348/852/2 350/853/2 351/854/2 352/855/2 353/856/2 354/857/2 349/822/2 339/822/2 338/821/2
f 356/858/157 358/859/157 362/860/157 360/861/157
f 340/845/158 337/844/158 356/862/158 355/863/158
f 337/864/157 338/865/157 358/859/157 356/858/157
f 339/866/5 340/867/5 355/868/5 357/869/5
f 362/870/158 361/871/158 365/872/158 366/873/158
f 357/869/5 355/868/5 359/874/5 361/875/5
f 358/824/150 357/823/150 361/876/150 362/877/150
f 355/863/158 356/862/158 360/878/158 359/879/158
f 364/880/143 366/881/143 365/882/143 363/883/143
f 359/884/150 360/885/150 364/886/150 363/887/150
f 360/888/159 362/889/159 366/890/159 364/891/159
f 361/892/6 359/893/6 363/894/6 365/895/6
f 367/896/2 369/897/2 373/898/2 371/899/2
f 315/772/4 311/775/4 368/900/4 370/901/4
f 313/764/2 317/767/2 369/897/2 367/896/2
f 311/760/1 313/763/1 367/902/1 368/903/1
f 371/904/5 373/905/5 374/906/5 372/907/5
f 369/779/3 370/778/3 374/908/3 373/909/3
f 368/903/1 367/902/1 371/910/1 372/911/1
f 370/901/4 368/900/4 372/912/4 374/913/4
f 375/914/1 376/915/1 378/916/1 377/917/1
f 377/918/2 378/919/2 382/920/2 381/921/2
f 381/922/3 382/923/3 380/924/3 379/925/3
f 379/926/4 380/927/4 376/928/4 375/929/4
f 379/926/4 375/929/4 384/930/4 386/931/4
f 382/932/6 378/933/6 376/934/6 380/935/6
f 383/936/5 385/937/5 386/938/5 384/939/5
f 377/918/2 381/921/2 385/940/2 383/941/2
f 375/914/1 377/917/1 383/942/1 384/943/1
f 381/922/3 379/925/3 386/944/3 385/945/3
f 387/946/1 388/947/1 390/948/1 389/949/1
f 389/950/2 390/951/2 394/952/2 393/953/2
f 393/954/3 394/955/3 392/956/3 391/957/3
f 391/958/4 392/959/4 388/960/4 387/961/4
f 393/962/6 391/962/6 403/962/6 404/962/6
f 394/963/6 390/964/6 388/965/6 392/966/6
f 397/967/6 398/967/6 402/967/6 401/967/6
f 391/958/4 387/961/4 396/968/4 398/969/4
f 389/950/2 393/953/2 397/970/2 395/971/2
f 387/946/1 389/949/1 395/972/1 396/973/1
f 399/974/5 401/975/5 402/976/5 400/977/5
f 396/967/6 395/967/6 399/967/6 400/967/6
f 398/967/6 396/967/6 400/967/6 402/967/6
f 395/967/6 397/967/6 401/967/6 399/967/6
f 404/978/3 403/979/3 408/980/3 407/981/3
f 391/982/4 398/983/4 405/983/4 408/984/4 403/982/4
f 398/967/6 397/967/6 406/967/6 405/967/6
f 397/985/6 393/986/6 404/986/6 407/987/6 406/985/6
f 412/988/160 411/989/160 409/990/160 410/991/160
f 405/992/161 406/993/161 418/994/161 417/995/161
f 407/996/162 408/997/162 411/998/162 412/999/162
f 406/1000/163 407/1001/163 412/1002/163 410/1003/163 418/1004/163
f 408/1005/164 405/1006/164 417/1007/164 409/1008/164 411/1009/164
f 410/1010/165 409/1011/165 416/1012/165 415/1013/165
f 409/1008/166 417/1007/166 413/1014/166 416/1015/166
f 413/1016/167 414/1017/167 415/1018/167 416/1019/167
f 417/1020/168 418/1021/168 414/1022/168 413/1023/168
f 418/1004/169 410/1003/169 415/1024/169 414/1025/169
f 419/1026/1 420/1027/1 422/1028/1 421/1029/1
f 421/1030/2 422/1031/2 426/1032/2 425/1033/2
f 425/1034/3 426/1035/3 424/1036/3 423/1037/3
f 423/1038/4 424/1039/4 420/1040/4 419/1041/4
f 421/1042/5 425/1043/5 423/1044/5 419/1045/5
f 426/1046/6 422/1047/6 420/1048/6 424/1049/6
