# Blender 5.1.2
# www.blender.org
mtllib table.mtl
o Plane
v -0.584200 -0.003175 0.304800
v -0.609600 -0.003175 0.279400
v -0.588173 -0.003175 0.304487
v -0.592049 -0.003175 0.303557
v -0.595731 -0.003175 0.302032
v -0.599130 -0.003175 0.299949
v -0.602161 -0.003175 0.297361
v -0.604749 -0.003175 0.294330
v -0.606832 -0.003175 0.290931
v -0.608357 -0.003175 0.287249
v -0.609287 -0.003175 0.283373
v 0.609600 -0.003175 0.279400
v 0.584200 -0.003175 0.304800
v 0.609287 -0.003175 0.283373
v 0.608357 -0.003175 0.287249
v 0.606832 -0.003175 0.290931
v 0.604749 -0.003175 0.294330
v 0.602161 -0.003175 0.297361
v 0.599130 -0.003175 0.299949
v 0.595731 -0.003175 0.302032
v 0.592049 -0.003175 0.303557
v 0.588173 -0.003175 0.304487
v -0.609600 -0.003175 -0.279400
v -0.584200 -0.003175 -0.304800
v -0.609287 -0.003175 -0.283373
v -0.608357 -0.003175 -0.287249
v -0.606832 -0.003175 -0.290931
v -0.604749 -0.003175 -0.294330
v -0.602161 -0.003175 -0.297361
v -0.599130 -0.003175 -0.299949
v -0.595731 -0.003175 -0.302032
v -0.592049 -0.003175 -0.303557
v -0.588173 -0.003175 -0.304487
v 0.584200 -0.003175 -0.304800
v 0.609600 -0.003175 -0.279400
v 0.588173 -0.003175 -0.304487
v 0.592049 -0.003175 -0.303557
v 0.595731 -0.003175 -0.302032
v 0.599130 -0.003175 -0.299949
v 0.602161 -0.003175 -0.297361
v 0.604749 -0.003175 -0.294330
v 0.606832 -0.003175 -0.290931
v 0.608357 -0.003175 -0.287249
v 0.609287 -0.003175 -0.283373
v -0.584200 0.003175 -0.304800
v -0.609600 0.003175 -0.279400
v -0.588173 0.003175 -0.304487
v -0.592049 0.003175 -0.303557
v -0.595731 0.003175 -0.302032
v -0.599130 0.003175 -0.299949
v -0.602161 0.003175 -0.297361
v -0.604749 0.003175 -0.294330
v -0.606832 0.003175 -0.290931
v -0.608357 0.003175 -0.287249
v -0.609287 0.003175 -0.283373
v -0.609600 0.003175 0.279400
v -0.584200 0.003175 0.304800
v -0.609287 0.003175 0.283373
v -0.608357 0.003175 0.287249
v -0.606832 0.003175 0.290931
v -0.604749 0.003175 0.294330
v -0.602161 0.003175 0.297361
v -0.599130 0.003175 0.299949
v -0.595731 0.003175 0.302032
v -0.592049 0.003175 0.303557
v -0.588173 0.003175 0.304487
v 0.584200 0.003175 0.304800
v 0.609600 0.003175 0.279400
v 0.588173 0.003175 0.304487
v 0.592049 0.003175 0.303557
v 0.595731 0.003175 0.302032
v 0.599130 0.003175 0.299949
v 0.602161 0.003175 0.297361
v 0.604749 0.003175 0.294330
v 0.606832 0.003175 0.290931
v 0.608357 0.003175 0.287249
v 0.609287 0.003175 0.283373
v 0.609600 0.003175 -0.279400
v 0.584200 0.003175 -0.304800
v 0.609287 0.003175 -0.283373
v 0.608357 0.003175 -0.287249
v 0.606832 0.003175 -0.290931
v 0.604749 0.003175 -0.294330
v 0.602161 0.003175 -0.297361
v 0.599130 0.003175 -0.299949
v 0.595731 0.003175 -0.302032
v 0.592049 0.003175 -0.303557
v 0.588173 0.003175 -0.304487
vn 0.0785 -0.0000 -0.9969
vn 0.2334 -0.0000 -0.9724
vn 0.3827 -0.0000 -0.9239
vn 0.5225 -0.0000 -0.8526
vn 0.6494 -0.0000 -0.7604
vn 0.7604 -0.0000 -0.6495
vn 0.8526 -0.0000 -0.5225
vn 0.9239 -0.0000 -0.3827
vn 0.9724 -0.0000 -0.2334
vn 0.9969 -0.0000 -0.0785
vn 0.0785 -0.0000 0.9969
vn 0.2334 -0.0000 0.9724
vn 0.3827 -0.0000 0.9239
vn 0.5225 -0.0000 0.8526
vn 0.6494 -0.0000 0.7604
vn 0.7604 -0.0000 0.6495
vn 0.8526 -0.0000 0.5225
vn 0.9239 -0.0000 0.3827
vn 0.9724 -0.0000 0.2334
vn 0.9969 -0.0000 0.0785
vn -0.0785 -0.0000 0.9969
vn -0.2334 -0.0000 0.9724
vn -0.3827 -0.0000 0.9239
vn -0.5225 -0.0000 0.8526
vn -0.6494 -0.0000 0.7604
vn -0.7604 -0.0000 0.6495
vn -0.8526 -0.0000 0.5225
vn -0.9239 -0.0000 0.3827
vn -0.9724 -0.0000 0.2334
vn -0.9969 -0.0000 0.0785
vn -0.0785 -0.0000 -0.9969
vn -0.2334 -0.0000 -0.9724
vn -0.3827 -0.0000 -0.9239
vn -0.5225 -0.0000 -0.8526
vn -0.6494 -0.0000 -0.7604
vn -0.7604 -0.0000 -0.6495
vn -0.8526 -0.0000 -0.5225
vn -0.9239 -0.0000 -0.3827
vn -0.9724 -0.0000 -0.2334
vn -0.9969 -0.0000 -0.0785
vn -1.0000 -0.0000 -0.0000
vn -0.0000 -1.0000 -0.0000
vn -0.0000 -0.0000 1.0000
vn 1.0000 -0.0000 -0.0000
vn -0.0000 -0.0000 -1.0000
vn -0.0000 1.0000 -0.0000
vt 0.979167 1.000000
vt 0.982426 0.999829
vt 0.985605 0.999320
vt 0.988625 0.998486
vt 0.991412 0.997348
vt 0.997966 0.995932
vt 0.998674 0.982824
vt 0.998674 0.982825
vt 0.999243 0.977250
vt 0.999243 0.977250
vt 0.999660 0.971209
vt 0.999915 0.964851
vt 1.000000 0.958333
vt 0.979167 0.000000
vt 0.982426 0.000171
vt 0.982426 0.000171
vt 0.985605 0.000680
vt 0.988625 0.001514
vt 0.991412 0.002653
vt 0.997966 0.004068
vt 0.998674 0.017176
vt 0.998674 0.017176
vt 0.999243 0.022750
vt 0.999243 0.022750
vt 0.999660 0.028791
vt 0.999660 0.028791
vt 0.999915 0.035149
vt 0.999915 0.035149
vt 1.000000 0.041667
vt 1.000000 0.041667
vt 0.020833 0.000000
vt 0.020833 0.000000
vt 0.017574 0.000171
vt 0.017574 0.000171
vt 0.014395 0.000680
vt 0.014395 0.000680
vt 0.011375 0.001514
vt 0.011375 0.001514
vt 0.008588 0.002653
vt 0.008588 0.002653
vt 0.002034 0.004068
vt 0.001326 0.017176
vt 0.001326 0.017176
vt 0.000757 0.022750
vt 0.000757 0.022750
vt 0.000340 0.028791
vt 0.000340 0.028791
vt 0.000086 0.035149
vt 0.000086 0.035149
vt 0.000000 0.041667
vt 0.000000 0.041667
vt 0.020833 1.000000
vt 0.020833 1.000000
vt 0.017574 0.999829
vt 0.017574 0.999829
vt 0.014395 0.999320
vt 0.014395 0.999320
vt 0.011375 0.998486
vt 0.011375 0.998486
vt 0.008588 0.997348
vt 0.008588 0.997347
vt 0.002034 0.995932
vt 0.001326 0.982824
vt 0.000757 0.977250
vt 0.000340 0.971209
vt 0.000340 0.971209
vt 0.000086 0.964851
vt 0.000000 0.958333
s 0
usemtl Material.001
f 34/1/1 79/1/1 88/2/1 36/2/1
f 36/2/2 88/2/2 87/3/2 37/3/2
f 37/3/3 87/3/3 86/4/3 38/4/3
f 38/4/4 86/4/4 85/5/4 39/5/4
f 39/5/5 85/5/5 84/6/5 40/6/5
f 40/6/6 84/6/6 83/7/6 41/8/6
f 41/8/7 83/7/7 82/9/7 42/10/7
f 42/10/8 82/9/8 81/11/8 43/11/8
f 43/11/9 81/11/9 80/12/9 44/12/9
f 44/12/10 80/12/10 78/13/10 35/13/10
f 67/14/11 13/14/11 22/15/11 69/16/11
f 69/16/12 22/15/12 21/17/12 70/17/12
f 70/17/13 21/17/13 20/18/13 71/18/13
f 71/18/14 20/18/14 19/19/14 72/19/14
f 72/19/15 19/19/15 18/20/15 73/20/15
f 73/20/16 18/20/16 17/21/16 74/22/16
f 74/22/17 17/21/17 16/23/17 75/24/17
f 75/24/18 16/23/18 15/25/18 76/26/18
f 76/26/19 15/25/19 14/27/19 77/28/19
f 77/28/20 14/27/20 12/29/20 68/30/20
f 1/31/21 57/32/21 66/33/21 3/34/21
f 3/34/22 66/33/22 65/35/22 4/36/22
f 4/36/23 65/35/23 64/37/23 5/38/23
f 5/38/24 64/37/24 63/39/24 6/40/24
f 6/40/25 63/39/25 62/41/25 7/41/25
f 7/41/26 62/41/26 61/42/26 8/43/26
f 8/43/27 61/42/27 60/44/27 9/45/27
f 9/45/28 60/44/28 59/46/28 10/47/28
f 10/47/29 59/46/29 58/48/29 11/49/29
f 11/49/30 58/48/30 56/50/30 2/51/30
f 45/52/31 24/53/31 33/54/31 47/55/31
f 47/55/32 33/54/32 32/56/32 48/57/32
f 48/57/33 32/56/33 31/58/33 49/59/33
f 49/59/34 31/58/34 30/60/34 50/61/34
f 50/61/35 30/60/35 29/62/35 51/62/35
f 51/62/36 29/62/36 28/63/36 52/63/36
f 52/63/37 28/63/37 27/64/37 53/64/37
f 53/64/38 27/64/38 26/65/38 54/66/38
f 54/66/39 26/65/39 25/67/39 55/67/39
f 55/67/40 25/67/40 23/68/40 46/68/40
f 23/68/41 2/51/41 56/50/41 46/68/41
f 1/31/42 3/34/42 4/36/42 5/38/42 6/40/42 7/41/42 8/43/42 9/45/42 10/47/42 11/49/42 2/51/42 23/68/42 25/67/42 26/65/42 27/64/42 28/63/42 29/62/42 30/60/42 31/58/42 32/56/42 33/54/42 24/53/42 34/1/42 36/2/42 37/3/42 38/4/42 39/5/42 40/6/42 41/8/42 42/10/42 43/11/42 44/12/42 35/13/42 12/29/42 14/27/42 15/25/42 16/23/42 17/21/42 18/20/42 19/19/42 20/18/42 21/17/42 22/15/42 13/14/42
f 1/31/43 13/14/43 67/14/43 57/32/43
f 12/29/44 35/13/44 78/13/44 68/30/44
f 34/1/45 24/53/45 45/52/45 79/1/45
f 56/50/46 58/48/46 59/46/46 60/44/46 61/42/46 62/41/46 63/39/46 64/37/46 65/35/46 66/33/46 57/32/46 67/14/46 69/16/46 70/17/46 71/18/46 72/19/46 73/20/46 74/22/46 75/24/46 76/26/46 77/28/46 68/30/46 78/13/46 80/12/46 81/11/46 82/9/46 83/7/46 84/6/46 85/5/46 86/4/46 87/3/46 88/2/46 79/1/46 45/52/46 47/55/46 48/57/46 49/59/46 50/61/46 51/62/46 52/63/46 53/64/46 54/66/46 55/67/46 46/68/46
o Cube
v -0.482600 -0.053975 0.025400
v -0.482600 -0.003175 0.025400
v -0.482600 -0.053975 -0.025400
v -0.482600 -0.003175 -0.025400
v -0.431800 -0.053975 0.025400
v -0.431800 -0.003175 0.025400
v -0.431800 -0.053975 -0.025400
v -0.431800 -0.003175 -0.025400
v -0.482600 -0.053975 -0.025400
v -0.482600 -0.053975 0.025400
v -0.482600 -0.003175 0.025400
v -0.482600 -0.003175 -0.025400
v -0.431800 -0.053975 -0.025400
v -0.431800 -0.003175 -0.025400
v -0.431800 -0.053975 0.025400
v -0.431800 -0.003175 0.025400
v -0.482600 -0.053975 -0.025400
v -0.482600 -0.053975 0.025400
v -0.431800 -0.053975 -0.025400
v -0.431800 -0.053975 0.025400
v -0.482600 -0.508000 -0.025400
v -0.482600 -0.508000 0.025400
v -0.431800 -0.508000 -0.025400
v -0.431800 -0.508000 0.025400
v 0.482600 -0.053975 0.025400
v 0.482600 -0.003175 0.025400
v 0.482600 -0.053975 -0.025400
v 0.482600 -0.003175 -0.025400
v 0.431800 -0.053975 0.025400
v 0.431800 -0.003175 0.025400
v 0.431800 -0.053975 -0.025400
v 0.431800 -0.003175 -0.025400
v 0.482600 -0.053975 -0.025400
v 0.482600 -0.053975 0.025400
v 0.482600 -0.003175 0.025400
v 0.482600 -0.003175 -0.025400
v 0.431800 -0.053975 -0.025400
v 0.431800 -0.003175 -0.025400
v 0.431800 -0.053975 0.025400
v 0.431800 -0.003175 0.025400
v 0.482600 -0.053975 -0.025400
v 0.482600 -0.053975 0.025400
v 0.431800 -0.053975 -0.025400
v 0.431800 -0.053975 0.025400
v 0.482600 -0.508000 -0.025400
v 0.482600 -0.508000 0.025400
v 0.431800 -0.508000 -0.025400
v 0.431800 -0.508000 0.025400
vn 1.0000 -0.0000 -0.0000
vn -0.0000 -0.0000 1.0000
vn -1.0000 -0.0000 -0.0000
vn -0.0000 -0.0000 -1.0000
vn -0.0000 1.0000 -0.0000
vn -0.0000 -1.0000 -0.0000
vt 0.375000 0.000000
vt 0.375000 0.250000
vt 0.625000 0.250000
vt 0.625000 0.000000
vt 0.375000 0.500000
vt 0.625000 0.500000
vt 0.375000 0.750000
vt 0.625000 0.750000
vt 0.375000 1.000000
vt 0.625000 1.000000
vt 0.125000 0.500000
vt 0.125000 0.750000
vt 0.875000 0.750000
vt 0.875000 0.500000
s 0
usemtl Material.002
f 89/69/47 91/70/47 92/71/47 90/72/47
f 91/70/48 95/73/48 96/74/48 92/71/48
f 95/73/49 93/75/49 94/76/49 96/74/49
f 93/75/50 89/77/50 90/78/50 94/76/50
f 91/79/51 89/80/51 93/75/51 95/73/51
f 96/74/52 94/76/52 90/81/52 92/82/52
f 98/69/49 99/72/49 100/71/49 97/70/49
f 97/70/50 100/71/50 102/74/50 101/73/50
f 101/73/47 102/74/47 104/76/47 103/75/47
f 103/75/48 104/76/48 99/78/48 98/77/48
f 97/70/51 101/73/51 107/73/51 105/70/51
f 102/74/51 100/82/51 99/81/51 104/76/51
f 108/75/48 106/77/48 110/77/48 112/75/48
f 98/69/51 97/70/51 105/70/51 106/69/51
f 101/73/51 103/75/51 108/75/51 107/73/51
f 103/75/51 98/77/51 106/77/51 108/75/51
f 105/70/50 107/73/50 111/73/50 109/70/50
f 107/73/47 108/75/47 112/75/47 111/73/47
f 106/69/49 105/70/49 109/70/49 110/69/49
f 113/69/49 114/72/49 116/71/49 115/70/49
f 115/70/48 116/71/48 120/74/48 119/73/48
f 119/73/47 120/74/47 118/76/47 117/75/47
f 117/75/50 118/76/50 114/78/50 113/77/50
f 115/79/51 119/73/51 117/75/51 113/80/51
f 120/74/52 116/82/52 114/81/52 118/76/52
f 122/69/47 121/70/47 124/71/47 123/72/47
f 121/70/50 125/73/50 126/74/50 124/71/50
f 125/73/49 127/75/49 128/76/49 126/74/49
f 127/75/48 122/77/48 123/78/48 128/76/48
f 121/70/51 129/70/51 131/73/51 125/73/51
f 126/74/51 128/76/51 123/81/51 124/82/51
f 132/75/48 136/75/48 134/77/48 130/77/48
f 122/69/51 130/69/51 129/70/51 121/70/51
f 125/73/51 131/73/51 132/75/51 127/75/51
f 127/75/51 132/75/51 130/77/51 122/77/51
f 129/70/50 133/70/50 135/73/50 131/73/50
f 131/73/49 135/73/49 136/75/49 132/75/49
f 130/69/47 134/69/47 133/70/47 129/70/47
o Cube.001
v -0.482600 -0.508000 -0.025400
v -0.482600 -0.508000 0.025400
v -0.431800 -0.508000 -0.025400
v -0.431800 -0.508000 0.025400
v -0.482600 -0.533400 -0.025400
v -0.482600 -0.533400 0.025400
v -0.431800 -0.533400 -0.025400
v -0.431800 -0.533400 0.025400
v -0.431800 -0.508000 -0.254000
v -0.482600 -0.508000 -0.254000
v -0.431800 -0.533400 -0.254000
v -0.482600 -0.533400 -0.254000
v -0.482600 -0.508000 0.254000
v -0.431800 -0.508000 0.254000
v -0.482600 -0.533400 0.254000
v -0.431800 -0.533400 0.254000
v 0.482600 -0.508000 -0.025400
v 0.482600 -0.508000 0.025400
v 0.431800 -0.508000 -0.025400
v 0.431800 -0.508000 0.025400
v 0.482600 -0.533400 -0.025400
v 0.482600 -0.533400 0.025400
v 0.431800 -0.533400 -0.025400
v 0.431800 -0.533400 0.025400
v 0.431800 -0.508000 -0.254000
v 0.482600 -0.508000 -0.254000
v 0.431800 -0.533400 -0.254000
v 0.482600 -0.533400 -0.254000
v 0.482600 -0.508000 0.254000
v 0.431800 -0.508000 0.254000
v 0.482600 -0.533400 0.254000
v 0.431800 -0.533400 0.254000
vn 1.0000 -0.0000 -0.0000
vn -0.0000 -1.0000 -0.0000
vn -1.0000 -0.0000 -0.0000
vn -0.0000 -0.0000 -1.0000
vn -0.0000 1.0000 -0.0000
vn -0.0000 -0.0000 1.0000
vt 0.375000 0.500000
vt 0.375000 0.750000
vt 0.125000 0.500000
vt 0.125000 0.750000
vt 0.375000 0.000000
vt 0.375000 0.250000
vt 0.000000 0.000000
vt 0.375000 1.000000
s 0
usemtl Material.002
f 139/83/53 140/84/53 144/84/53 143/83/53
f 141/85/54 143/83/54 144/84/54 142/86/54
f 138/87/55 137/88/55 141/88/55 142/87/55
f 142/86/54 144/84/54 152/84/54 151/86/54
f 139/83/53 143/83/53 147/83/53 145/83/53
f 146/88/56 145/83/56 147/83/56 148/88/56
f 143/83/54 141/85/54 148/85/54 147/83/54
f 137/89/57 139/89/57 145/89/57 146/89/57
f 141/88/55 137/88/55 146/88/55 148/88/55
f 150/84/58 149/90/58 151/90/58 152/84/58
f 140/89/57 138/89/57 149/89/57 150/89/57
f 144/84/53 140/84/53 150/84/53 152/84/53
f 138/87/55 142/87/55 151/87/55 149/87/55
f 155/83/55 159/83/55 160/84/55 156/84/55
f 157/85/54 158/86/54 160/84/54 159/83/54
f 154/87/53 158/87/53 157/88/53 153/88/53
f 158/86/54 167/86/54 168/84/54 160/84/54
f 155/83/55 161/83/55 163/83/55 159/83/55
f 162/88/56 164/88/56 163/83/56 161/83/56
f 159/83/54 163/83/54 164/85/54 157/85/54
f 153/89/57 162/89/57 161/89/57 155/89/57
f 157/88/53 164/88/53 162/88/53 153/88/53
f 166/84/58 168/84/58 167/90/58 165/90/58
f 156/89/57 166/89/57 165/89/57 154/89/57
f 160/84/55 168/84/55 166/84/55 156/84/55
f 154/87/53 165/87/53 167/87/53 158/87/53
